<svg width="33" height="33" viewBox="0 0 33 33" fill="none" xmlns="http://www.w3.org/2000/svg">
<g clip-path="url(#clip0)">
<path d="M30.3521 21.6607C28.3317 21.6607 26.3479 21.3447 24.468 20.7235C23.5469 20.4093 22.4145 20.6975 21.8523 21.2749L18.1418 24.076C13.8386 21.779 11.1879 19.1292 8.92229 14.8583L11.6409 11.2445C12.3472 10.5391 12.6006 9.50873 12.2971 8.54193C11.6731 6.65216 11.3562 4.66933 11.3562 2.64808C11.3563 1.18791 10.1684 0 8.7083 0H2.64799C1.18791 0 0 1.18791 0 2.64799C0 19.3843 13.6158 33 30.3521 33C31.8122 33 33.0001 31.8121 33.0001 30.352V24.3086C33 22.8486 31.8121 21.6607 30.3521 21.6607Z" fill="#70ABDC"/>
</g>
<defs>
<clipPath id="clip0">
<rect width="33" height="33" fill="white"/>
</clipPath>
</defs>
</svg>
