<svg width="13" height="13" viewBox="0 0 13 13" fill="none" xmlns="http://www.w3.org/2000/svg">
<g clip-path="url(#clip0)">
<path d="M6.85674 9.86228L12.853 3.8494C13.0493 3.65239 13.049 3.33344 12.852 3.13676C12.655 2.94024 12.3358 2.94075 12.1393 3.13778L6.49998 8.79275L0.860643 3.13757C0.664121 2.94057 0.34519 2.94006 0.14816 3.13656C0.0493908 3.23515 5.70566e-06 3.36431 5.70002e-06 3.49347C5.69439e-06 3.6223 0.0490598 3.75096 0.147143 3.84937L6.14324 9.86228C6.23764 9.95716 6.36612 10.0104 6.49998 10.0104C6.63384 10.0104 6.76216 9.95701 6.85674 9.86228Z" fill="white"/>
</g>
<defs>
<clipPath id="clip0">
<rect width="13" height="13" fill="white" transform="translate(13) rotate(90)"/>
</clipPath>
</defs>
</svg>
