<svg width="50" height="50" viewBox="0 0 50 50" fill="none" xmlns="http://www.w3.org/2000/svg">
<path d="M25 6.25C14.6612 6.25 6.25 14.6612 6.25 25C6.25 35.3388 14.6612 43.75 25 43.75C35.3388 43.75 43.75 35.3388 43.75 25C43.75 14.6612 35.3388 6.25 25 6.25ZM10.1562 25.7812H8.59375C8.38655 25.7812 8.18784 25.6989 8.04132 25.5524C7.89481 25.4059 7.8125 25.2072 7.8125 25C7.8125 24.7928 7.89481 24.5941 8.04132 24.4476C8.18784 24.3011 8.38655 24.2188 8.59375 24.2188H10.1562C10.3635 24.2188 10.5622 24.3011 10.7087 24.4476C10.8552 24.5941 10.9375 24.7928 10.9375 25C10.9375 25.2072 10.8552 25.4059 10.7087 25.5524C10.5622 25.6989 10.3635 25.7812 10.1562 25.7812ZM24.2188 8.59375C24.2188 8.38655 24.3011 8.18784 24.4476 8.04132C24.5941 7.89481 24.7928 7.8125 25 7.8125C25.2072 7.8125 25.4059 7.89481 25.5524 8.04132C25.6989 8.18784 25.7812 8.38655 25.7812 8.59375V10.1562C25.7812 10.3635 25.6989 10.5622 25.5524 10.7087C25.4059 10.8552 25.2072 10.9375 25 10.9375C24.7928 10.9375 24.5941 10.8552 24.4476 10.7087C24.3011 10.5622 24.2188 10.3635 24.2188 10.1562V8.59375ZM15.0562 36.0486L13.9515 37.1534C13.8049 37.2999 13.6062 37.3822 13.399 37.3822C13.1918 37.3822 12.9931 37.2999 12.8466 37.1534C12.7001 37.0069 12.6178 36.8082 12.6178 36.601C12.6178 36.3938 12.7001 36.1951 12.8466 36.0485L13.9515 34.9437C14.098 34.7971 14.2967 34.7149 14.5039 34.7149C14.7111 34.7149 14.9098 34.7972 15.0563 34.9438C15.2029 35.0903 15.2851 35.289 15.2851 35.4962C15.2851 35.7034 15.2028 35.9021 15.0562 36.0486ZM15.0562 15.0563C14.9097 15.2028 14.711 15.2851 14.5039 15.2851C14.2967 15.2851 14.098 15.2028 13.9515 15.0563L12.8466 13.9515C12.7001 13.8049 12.6178 13.6062 12.6178 13.399C12.6178 13.1918 12.7001 12.9931 12.8466 12.8466C12.9931 12.7001 13.1918 12.6178 13.399 12.6178C13.6062 12.6178 13.8049 12.7001 13.9515 12.8466L15.0562 13.9514C15.1288 14.0239 15.1864 14.11 15.2257 14.2048C15.2649 14.2996 15.2851 14.4012 15.2851 14.5039C15.2851 14.6065 15.2649 14.7081 15.2257 14.8029C15.1864 14.8977 15.1288 14.9838 15.0562 15.0563ZM25.7812 41.4062C25.7812 41.6134 25.6989 41.8122 25.5524 41.9587C25.4059 42.1052 25.2072 42.1875 25 42.1875C24.7928 42.1875 24.5941 42.1052 24.4476 41.9587C24.3011 41.8122 24.2188 41.6134 24.2188 41.4062V39.8438C24.2188 39.6366 24.3011 39.4378 24.4476 39.2913C24.5941 39.1448 24.7928 39.0625 25 39.0625C25.2072 39.0625 25.4059 39.1448 25.5524 39.2913C25.6989 39.4378 25.7812 39.6366 25.7812 39.8438V41.4062ZM33.3669 17.738L27.7058 23.4396C27.9813 23.9166 28.1258 24.458 28.1247 25.0089C28.1235 25.5598 27.9768 26.1006 27.6993 26.5766C27.4218 27.0525 27.0234 27.4466 26.5446 27.7189C26.0657 27.9913 25.5233 28.1322 24.9724 28.1274C24.4215 28.1226 23.8817 27.9722 23.4077 27.6916C22.9336 27.4109 22.5422 27.0099 22.273 26.5292C22.0039 26.0485 21.8666 25.5052 21.8751 24.9544C21.8835 24.4036 22.0375 23.8648 22.3213 23.3926L18.9814 20.0865C18.906 20.0149 18.8456 19.929 18.8038 19.8338C18.762 19.7386 18.7396 19.636 18.738 19.532C18.7364 19.428 18.7555 19.3248 18.7943 19.2283C18.8331 19.1318 18.8908 19.044 18.9639 18.9701C19.0371 18.8962 19.1243 18.8376 19.2204 18.7979C19.3165 18.7581 19.4195 18.7379 19.5235 18.7385C19.6275 18.7391 19.7303 18.7604 19.826 18.8013C19.9216 18.8421 20.0081 18.9016 20.0805 18.9764L23.4349 22.2967C23.9181 22.0159 24.468 21.8703 25.0269 21.8751C25.5857 21.8799 26.133 22.0349 26.6114 22.3238L32.2577 16.637C32.3295 16.5622 32.4155 16.5024 32.5107 16.4612C32.6058 16.4199 32.7083 16.398 32.812 16.3968C32.9157 16.3955 33.0186 16.4149 33.1147 16.4539C33.2108 16.4928 33.2983 16.5505 33.3718 16.6236C33.4454 16.6967 33.5038 16.7837 33.5434 16.8795C33.583 16.9754 33.6031 17.0781 33.6026 17.1819C33.6021 17.2856 33.5809 17.3881 33.5404 17.4836C33.4998 17.579 33.4406 17.6655 33.3663 17.7378L33.3669 17.738ZM37.1534 37.1534C37.0809 37.226 36.9947 37.2835 36.9 37.3228C36.8052 37.362 36.7036 37.3823 36.601 37.3823C36.4984 37.3823 36.3968 37.362 36.302 37.3228C36.2072 37.2835 36.1211 37.226 36.0485 37.1534L34.9438 36.0486C34.7972 35.9021 34.7149 35.7034 34.7149 35.4962C34.7149 35.289 34.7971 35.0903 34.9437 34.9438C35.0902 34.7972 35.2889 34.7149 35.4961 34.7149C35.7033 34.7149 35.902 34.7971 36.0485 34.9437L37.1534 36.0485C37.226 36.1211 37.2835 36.2072 37.3228 36.302C37.362 36.3968 37.3823 36.4984 37.3823 36.601C37.3823 36.7036 37.362 36.8052 37.3228 36.9C37.2835 36.9947 37.226 37.0809 37.1534 37.1534ZM37.1534 13.9515L36.0485 15.0563C35.902 15.2029 35.7033 15.2851 35.4961 15.2851C35.2889 15.2851 35.0902 15.2028 34.9437 15.0562C34.7971 14.9097 34.7149 14.711 34.7149 14.5038C34.7149 14.2966 34.7972 14.0979 34.9438 13.9514L36.0485 12.8466C36.1951 12.7001 36.3938 12.6178 36.601 12.6178C36.8082 12.6178 37.0069 12.7001 37.1534 12.8466C37.2999 12.9931 37.3822 13.1918 37.3822 13.399C37.3822 13.6062 37.2999 13.8049 37.1534 13.9515ZM39.8438 24.2188H41.4062C41.6134 24.2188 41.8122 24.3011 41.9587 24.4476C42.1052 24.5941 42.1875 24.7928 42.1875 25C42.1875 25.2072 42.1052 25.4059 41.9587 25.5524C41.8122 25.6989 41.6134 25.7812 41.4062 25.7812H39.8438C39.6366 25.7812 39.4378 25.6989 39.2913 25.5524C39.1448 25.4059 39.0625 25.2072 39.0625 25C39.0625 24.7928 39.1448 24.5941 39.2913 24.4476C39.4378 24.3011 39.6366 24.2188 39.8438 24.2188Z" fill="#70ABDC"/>
<path d="M25 26.5625C25.8629 26.5625 26.5625 25.8629 26.5625 25C26.5625 24.1371 25.8629 23.4375 25 23.4375C24.1371 23.4375 23.4375 24.1371 23.4375 25C23.4375 25.8629 24.1371 26.5625 25 26.5625Z" fill="#70ABDC"/>
<path d="M25 3.125C20.6736 3.125 16.4442 4.40795 12.8469 6.8116C9.24959 9.21526 6.44581 12.6317 4.79015 16.6288C3.13448 20.6259 2.70128 25.0243 3.54533 29.2676C4.38939 33.5109 6.47278 37.4087 9.53206 40.468C13.6344 44.5703 19.1984 46.875 25 46.875C30.8016 46.875 36.3656 44.5703 40.468 40.468C44.5704 36.3656 46.875 30.8016 46.875 25C46.875 19.1984 44.5704 13.6344 40.468 9.53204C38.4414 7.49438 36.0309 5.87892 33.3758 4.77915C30.7207 3.67938 27.8739 3.11715 25 3.125ZM25 45.3125C13.7997 45.3125 4.68753 36.2003 4.68753 25C4.68753 13.7997 13.7997 4.6875 25 4.6875C36.2003 4.6875 45.3125 13.7997 45.3125 25C45.3125 36.2003 36.2003 45.3125 25 45.3125Z" fill="#70ABDC"/>
</svg>
