<svg width="46" height="46" viewBox="0 0 46 46" fill="none" xmlns="http://www.w3.org/2000/svg">
<path d="M38.3333 8.12207V3.83333C38.3307 1.71733 36.616 0.00268333 34.5 0H3.83333C1.71733 0.00268333 0.00268333 1.71733 0 3.83333V20.7C0.00594168 22.6579 1.49002 24.2953 3.43773 24.4939L6.31963 31.9748C7.08093 33.9501 9.29928 34.9341 11.2748 34.1738L29.2713 27.2412C28.0278 30.4894 28.3816 34.1331 30.2262 37.0816L30.6667 37.7859V45.2333C30.6667 45.6569 31.0098 46 31.4333 46H45.2333C45.6569 46 46 45.6569 46 45.2333V19.9266C45.9927 17.2753 44.9372 14.735 43.0627 12.8599L38.3333 8.12207ZM38.3333 12.7071L40.6602 18.7473C41.1161 19.9329 40.5252 21.2633 39.3398 21.7197L38.0098 22.2333C38.2222 21.75 38.3322 21.2275 38.3333 20.7V12.7071ZM1.53333 20.7V3.83333C1.53333 2.56335 2.56335 1.53333 3.83333 1.53333H34.5C35.77 1.53333 36.8 2.56335 36.8 3.83333V8.70627H36.7933L36.8 8.72371V20.7C36.7941 20.8338 36.7766 20.9664 36.7479 21.0971L29.7252 14.0737C28.1466 12.5316 25.6301 12.5197 24.0373 14.0457C22.4442 15.5727 22.3485 18.0874 23.8219 19.73L26.8157 23H3.83333C2.56335 23 1.53333 21.97 1.53333 20.7ZM11.3551 24.5333L5.90333 26.6323L5.0968 24.5333H11.3551ZM10.7234 32.7426C9.5381 33.1995 8.20697 32.6086 7.75023 31.4234L6.45687 28.06L15.6086 24.5333V24.5287H28.221L29.2175 25.6151L10.7234 32.7426ZM44.4667 44.4667H32.2V38.3333H44.4667V44.4667ZM44.4667 36.8H31.8588L31.5263 36.2687C29.657 33.2814 29.5826 29.5082 31.3321 26.45C31.4977 26.1606 31.4571 25.7972 31.2317 25.5515L24.9491 18.6975C24.0122 17.6721 24.0649 16.0868 25.0679 15.1263C26.0713 14.1657 27.6573 14.1814 28.6409 15.1612L40.858 27.3754L41.942 26.2913L39.1054 23.4546L39.892 23.148C41.8657 22.3865 42.8494 20.17 42.09 18.1951L39.495 11.4569L41.9786 13.9457C43.5656 15.5323 44.4605 17.6824 44.4667 19.9266V36.8Z" fill="#72AFE2"/>
<path d="M8.73999 10.7336C9.84092 10.7336 10.7333 9.84116 10.7333 8.74023V5.06023C10.7333 3.95929 9.84092 3.06689 8.73999 3.06689H5.05998C3.95905 3.06689 3.06665 3.95929 3.06665 5.06023V8.74023C3.06665 9.84116 3.95905 10.7336 5.05998 10.7336H8.73999ZM4.59998 8.74023V7.6669H6.13332V6.13356H4.59998V5.06023C4.59998 4.80627 4.80603 4.60023 5.05998 4.60023H8.73999C8.99395 4.60023 9.19999 4.80627 9.19999 5.06023V6.13356H7.66665V7.6669H9.19999V8.74023C9.19999 8.99419 8.99395 9.20023 8.73999 9.20023H5.05998C4.80603 9.20023 4.59998 8.99419 4.59998 8.74023Z" fill="#72AFE2"/>
<path d="M3.83325 13.0332H6.89992V14.5665H3.83325V13.0332Z" fill="#72AFE2"/>
<path d="M3.83325 17.6333H6.89992V19.1666H3.83325V17.6333Z" fill="#72AFE2"/>
<path d="M17.6333 17.6333H20.7V19.1666H17.6333V17.6333Z" fill="#72AFE2"/>
<path d="M8.43335 13.0332H11.5V14.5665H8.43335V13.0332Z" fill="#72AFE2"/>
<path d="M13.0334 13.0332H16.1001V14.5665H13.0334V13.0332Z" fill="#72AFE2"/>
<path d="M17.6333 13.0332H20.7V14.5665H17.6333V13.0332Z" fill="#72AFE2"/>
<path d="M32.2 3.8335H33.7333V6.13349H32.2V3.8335Z" fill="#72AFE2"/>
<path d="M29.1333 3.8335H30.6666V6.13349H29.1333V3.8335Z" fill="#72AFE2"/>
<path d="M26.0667 3.8335H27.6V6.13349H26.0667V3.8335Z" fill="#72AFE2"/>
<path d="M23 3.8335H24.5333V6.13349H23V3.8335Z" fill="#72AFE2"/>
<path d="M33.7334 39.8667H35.2667V41.4H33.7334V39.8667Z" fill="#72AFE2"/>
</svg>
