<svg width="48" height="48" viewBox="0 0 48 48" fill="none" xmlns="http://www.w3.org/2000/svg">
<path d="M16.5 14.25H15C15 14.6632 14.6632 15 14.25 15C13.8368 15 13.5 14.6632 13.5 14.25H12C12 15.4905 13.0095 16.5 14.25 16.5C15.4905 16.5 16.5 15.4905 16.5 14.25Z" fill="#72AFE2"/>
<path d="M20.25 16.5C21.4905 16.5 22.5 15.4905 22.5 14.25H21C21 14.6632 20.6632 15 20.25 15C19.8368 15 19.5 14.6632 19.5 14.25H18C18 15.4905 19.0095 16.5 20.25 16.5Z" fill="#72AFE2"/>
<path d="M21.7073 26.3715L20.2418 26.2898C20.2343 26.094 20.2103 25.9012 20.1712 25.7137C20.823 25.467 21.4305 25.1415 21.987 24.75H25.0028C27.7583 24.75 30 22.5082 30 19.7528C30 18.981 29.8178 18.2085 29.4728 17.5177L28.5 15.573V12C28.5 5.79675 23.4533 0.75 17.25 0.75C11.0468 0.75 6 5.79675 6 12V15.573L5.02725 17.5185C4.68225 18.2085 4.5 18.981 4.5 19.7528C4.5 22.5082 6.74175 24.75 9.49725 24.75H12.5062C12.8242 24.9735 13.1595 25.1768 13.512 25.3552L13.389 26.3377L12.7927 26.3708C6.03975 26.7465 0.75 32.3385 0.75 39.102C0.75 43.5945 4.4055 47.25 8.898 47.25H33.75V39.102C33.75 32.3385 28.4603 26.7465 21.7073 26.3715ZM25.0028 23.25H23.6025C24.4845 22.1805 25.0995 20.895 25.3582 19.5H25.5C26.5875 19.5 27.5325 18.9128 28.059 18.0443L28.131 18.1882C28.3725 18.672 28.5 19.2127 28.5 19.7528C28.5 21.681 26.931 23.25 25.0028 23.25ZM25.5 15C26.3272 15 27 15.6727 27 16.5C27 17.3272 26.3272 18 25.5 18V15ZM17.25 2.25C22.626 2.25 27 6.624 27 12V13.917C26.5567 13.659 26.049 13.5 25.5 13.5V10.5H23.25C21.6855 10.5 20.2792 9.63075 19.5788 8.232L19.4205 7.9155L18.0788 8.586L18.237 8.90325C18.5445 9.51825 18.96 10.0478 19.4422 10.497C17.901 10.476 16.5202 9.61425 15.8287 8.23275L15.6705 7.91625L14.3287 8.58675L14.487 8.904C14.7945 9.519 15.21 10.0485 15.6923 10.4977C14.151 10.4767 12.7702 9.615 12.0787 8.2335L11.9205 7.917L10.5787 8.5875L10.737 8.90475C10.857 9.14475 10.9928 9.3735 11.142 9.5895C9.8655 10.1993 9 11.4937 9 12.9592V13.5C8.451 13.5 7.94325 13.659 7.5 13.917V12C7.5 6.624 11.874 2.25 17.25 2.25ZM7.5 16.5C7.5 15.6727 8.17275 15 9 15V18C8.17275 18 7.5 17.3272 7.5 16.5ZM6 19.7528C6 19.2127 6.1275 18.672 6.369 18.189L6.441 18.0443C6.9675 18.9128 7.9125 19.5 9 19.5H9.14175C9.3975 20.8927 10.0043 22.179 10.8878 23.25H9.49725C7.569 23.25 6 21.681 6 19.7528ZM10.5 18V12.9592C10.5 11.9115 11.2327 11.004 12.2482 10.7708C13.2217 11.5522 14.4443 12 15.75 12V10.551C16.7595 11.4653 18.0788 12 19.5 12V10.551C20.5095 11.4653 21.8288 12 23.25 12H24V18C24 20.853 22.197 23.388 19.5525 24.3465C19.3298 24.051 19.0627 23.787 18.75 23.5725V21.093C18.75 19.8015 17.6985 18.75 16.4062 18.75C15.2273 18.75 14.2275 19.6327 14.0812 20.8027L13.713 23.7502C11.7338 22.5345 10.5 20.3738 10.5 18ZM17.6895 28.5H14.631L15.57 20.9888C15.6225 20.5673 15.9825 20.25 16.4062 20.25C16.872 20.25 17.25 20.628 17.25 21.0938V24.4642L17.6647 24.6712C18.3337 25.0058 18.75 25.6785 18.75 26.427V26.6265C18.75 27.1432 18.5408 27.6495 18.1747 28.0148L17.6895 28.5ZM2.25 39.102C2.25 33.1343 6.918 28.2 12.876 27.8693L13.2 27.8512L12.7215 31.6792C12.3442 34.698 11.0925 37.5653 9.1665 39.9067L7.4205 36.4147L6.07875 37.086L8.08725 41.1022L6.96975 42.2197L8.03025 43.2803L9.19875 42.1117C11.9482 39.3622 13.728 35.7233 14.2103 31.8652L14.4435 30H17.25V33.6968C17.25 37.0117 16.2457 40.1985 14.3445 42.9143C13.1017 44.6895 11.0655 45.75 8.898 45.75C5.23275 45.75 2.25 42.7673 2.25 39.102ZM32.25 45.75H27.75V34.5H26.25V45.75H13.596C14.3535 45.2152 15.0278 44.5537 15.573 43.7745C17.6512 40.806 18.75 37.3208 18.75 33.6968V29.5605L19.2352 29.0752C19.6057 28.7047 19.8697 28.2607 20.0392 27.7815L21.6232 27.8693C27.5828 28.2 32.25 33.1343 32.25 39.102V45.75Z" fill="#72AFE2"/>
<path d="M20.25 34.5H24.75V36H20.25V34.5Z" fill="#72AFE2"/>
<path d="M43.77 5.25H34.23C32.3115 5.25 30.75 6.8115 30.75 8.73C30.75 8.9595 30.7725 9.18975 30.8175 9.4125L31.8255 14.4525C32.1495 16.0733 33.5843 17.25 35.2373 17.25H36V18.4395C36 19.4377 36.8123 20.25 37.8105 20.25C38.2943 20.25 38.7487 20.0617 39.0907 19.7197L41.5605 17.25H42.762C44.4157 17.25 45.8505 16.0732 46.1737 14.4532L47.1818 9.41325C47.2275 9.189 47.25 8.9595 47.25 8.73C47.25 6.8115 45.6885 5.25 43.77 5.25ZM45.7118 9.11775L44.7037 14.1585C44.5192 15.081 43.7025 15.75 42.762 15.75H40.9395L38.0303 18.6593C37.8518 18.8377 37.5 18.693 37.5 18.4395V15.75H35.238C34.2975 15.75 33.4807 15.081 33.297 14.1585L32.289 9.117C32.2627 8.991 32.25 8.8605 32.25 8.73C32.25 7.638 33.138 6.75 34.23 6.75H43.77C44.862 6.75 45.75 7.638 45.75 8.73C45.75 8.8605 45.7373 8.991 45.7118 9.11775Z" fill="#72AFE2"/>
<path d="M34.5 8.25H43.5V9.75H34.5V8.25Z" fill="#72AFE2"/>
<path d="M34.5 11.25H43.5V12.75H34.5V11.25Z" fill="#72AFE2"/>
</svg>
