<svg width="48" height="48" viewBox="0 0 48 48" fill="none" xmlns="http://www.w3.org/2000/svg">
<path d="M47.3344 27.8878C46.6618 26.9481 45.5415 26.3166 44.4104 26.2398C43.4872 26.1772 42.6507 26.4894 42.0556 27.1193C41.925 27.2575 41.7841 27.4093 41.635 27.5718C40.9766 26.9687 40.1139 26.5806 39.244 26.5214C38.3205 26.459 37.4843 26.771 36.8892 27.4009C35.5938 28.7723 33.3002 31.4508 31.499 33.5832C31.264 33.4442 31.0126 33.3296 30.7467 33.2437C29.8856 32.8729 18.0169 27.804 12.7558 27.804C4.25736 27.804 0.353144 32.3718 0.191051 32.5664C-0.0574805 32.8646 -0.017168 33.3069 0.280301 33.5564C0.577863 33.8059 1.02177 33.7668 1.27218 33.47C1.28118 33.4594 2.19327 32.3915 4.05627 31.3392C5.77349 30.3692 8.67664 29.2131 12.7558 29.2131C17.8101 29.2131 30.0968 34.4979 30.2204 34.5512C30.2431 34.5611 30.2663 34.5697 30.29 34.5771C30.8767 34.7602 31.3571 35.1609 31.6426 35.7053C31.928 36.2496 31.9844 36.8727 31.8012 37.4595C31.6289 38.0114 31.2435 38.4905 30.7403 38.7754C30.1773 39.0943 29.513 39.1331 28.896 38.9641L21.209 36.847C20.8339 36.7439 20.4459 36.964 20.3426 37.3392C20.2393 37.7143 20.4596 38.1021 20.8347 38.2054L28.511 40.3196C30.0245 40.7864 31.718 40.2142 32.6328 38.9207C32.8573 38.6032 33.0304 38.2503 33.1462 37.8792C33.2426 37.5705 33.2971 37.2555 33.3117 36.9408L35.3735 36.7238C35.5559 36.7046 35.7237 36.6149 35.8412 36.4739C35.892 36.4129 40.9474 30.3439 43.0798 28.0867C43.9662 27.1483 45.5486 27.8135 46.1886 28.7077C47.1727 30.0826 45.9498 31.5838 45.5515 32.0112C43.5944 34.1111 40.0056 38.4372 39.3605 39.2169L24.7542 46.5201L10.775 40.6341C10.6884 40.5976 10.5954 40.5789 10.5015 40.5789H0.732363C0.343301 40.5789 0.027832 40.8944 0.027832 41.2834C0.027832 41.6725 0.343301 41.9879 0.732363 41.9879H10.3592L24.506 47.9445C24.5935 47.9814 24.6865 47.9997 24.7793 47.9997C24.8874 47.9997 24.9955 47.9747 25.0944 47.9252L40.1238 40.4105C40.2117 40.3665 40.2894 40.3047 40.352 40.2288C40.3933 40.1789 44.5012 35.2044 46.5822 32.9717C48.1143 31.3281 48.4025 29.3799 47.3344 27.8878ZM34.9418 35.3525L33.1062 35.5457C32.9761 35.1773 32.7885 34.8311 32.5519 34.5203C34.0862 32.704 36.5796 29.7808 37.9136 28.3687C38.2991 27.9607 38.7985 27.9038 39.1486 27.9273C39.701 27.9649 40.2672 28.2254 40.6931 28.6195C38.5793 31.0056 35.7016 34.4426 34.9418 35.3525Z" fill="#72AFE2"/>
<path d="M39.8085 14.2778H33.7498V6.29353C33.7498 5.90447 33.4345 5.589 33.0453 5.589C32.6562 5.589 32.3408 5.90447 32.3408 6.29353V14.9824C32.3408 15.3714 32.6562 15.6869 33.0453 15.6869H37.9041L24.0277 27.581L10.1513 15.6869H15.0101C15.3991 15.6869 15.7146 15.3714 15.7146 14.9824V1.40897H32.3409V3.05278C32.3409 3.44184 32.6562 3.75731 33.0454 3.75731C33.4346 3.75731 33.7499 3.44184 33.7499 3.05278V0.704531C33.7499 0.315469 33.4346 0 33.0454 0H15.0101C14.6211 0 14.3056 0.315469 14.3056 0.704531V14.2779H8.24693C7.60802 14.2779 7.30212 15.1005 7.7884 15.5173L23.5692 29.0437C23.8299 29.2672 24.2256 29.2672 24.4862 29.0437L40.2671 15.5173C40.7533 15.1004 40.4475 14.2778 39.8085 14.2778Z" fill="#72AFE2"/>
<path d="M29.0348 4.71516C28.7595 4.44 28.3136 4.44 28.0384 4.71516L19.0208 13.7328C18.5868 14.1667 18.9029 14.9354 19.5189 14.9354C19.6992 14.9354 19.8796 14.8667 20.017 14.7291L29.0347 5.71144C29.3099 5.43628 29.3099 4.99022 29.0348 4.71516Z" fill="#72AFE2"/>
<path d="M27.7851 10.5205C26.5679 10.5205 25.5776 11.5108 25.5776 12.7279C25.5776 13.9451 26.5679 14.9354 27.7851 14.9354C29.0022 14.9354 29.9925 13.9451 29.9925 12.7279C29.9925 11.5108 29.0022 10.5205 27.7851 10.5205ZM27.7851 13.5264C27.3448 13.5264 26.9866 13.1683 26.9866 12.7279C26.9866 12.2876 27.3447 11.9295 27.7851 11.9295C28.2253 11.9295 28.5835 12.2876 28.5835 12.7279C28.5835 13.1683 28.2253 13.5264 27.7851 13.5264Z" fill="#72AFE2"/>
<path d="M20.2704 4.50879C19.0533 4.50879 18.063 5.49907 18.063 6.71623C18.063 7.93338 19.0533 8.92366 20.2704 8.92366C21.4876 8.92366 22.4779 7.93338 22.4779 6.71623C22.4779 5.49907 21.4877 4.50879 20.2704 4.50879ZM20.2704 7.5147C19.8302 7.5147 19.472 7.15657 19.472 6.71623C19.472 6.27588 19.8301 5.91776 20.2704 5.91776C20.7108 5.91776 21.0689 6.27588 21.0689 6.71623C21.0689 7.15657 20.7107 7.5147 20.2704 7.5147Z" fill="#72AFE2"/>
</svg>
