<svg width="46" height="46" viewBox="0 0 46 46" fill="none" xmlns="http://www.w3.org/2000/svg">
<path d="M3.02019 15.4143L1.95716 17.2033L5.79672 21.0428L7.58569 19.9791C7.81353 20.0848 8.04425 20.1811 8.27281 20.2666L8.78528 22.2812H14.2154L14.7279 20.2673C14.9565 20.1818 15.1872 20.0862 15.415 19.9798L17.204 21.0436L21.0436 17.204L19.9805 15.415C20.0862 15.1872 20.1825 14.9572 20.268 14.7279L22.2812 14.2147V8.78456L20.2673 8.27209C20.1818 8.04281 20.0855 7.81281 19.9798 7.58425L21.0428 5.79528L17.2033 1.95572L15.4143 3.01947C15.1865 2.91381 14.9557 2.8175 14.7272 2.73197L14.2147 0.71875H8.78456L8.27281 2.73269C8.04425 2.81822 7.81353 2.91381 7.58569 3.02019L5.79672 1.95644L1.95716 5.796L3.02019 7.58497C2.91453 7.81353 2.81822 8.04281 2.73269 8.27281L0.71875 8.78528V14.2154L2.73269 14.7279C2.81822 14.9572 2.91453 15.1865 3.02019 15.4143ZM2.15625 9.90222L3.84819 9.47169L3.96894 9.09219C4.09759 8.69112 4.26794 8.28359 4.47566 7.88253L4.65894 7.52819L3.76338 6.02241L6.02241 3.76338L7.52819 4.65894L7.88181 4.47638C8.28431 4.26866 8.69113 4.09903 9.09363 3.97038L9.47313 3.84891L9.90222 2.15625H13.0971L13.5269 3.84819L13.9064 3.96966C14.3089 4.09831 14.7157 4.26794 15.1182 4.47566L15.4718 4.65822L16.9776 3.76266L19.2366 6.02169L18.3411 7.52747L18.5243 7.88181C18.7321 8.28359 18.9024 8.69041 19.0311 9.09147L19.1518 9.47097L20.8438 9.90222V13.0971L19.1518 13.5276L19.0311 13.9071C18.9024 14.3089 18.7321 14.7157 18.5251 15.1167L18.3411 15.4711L19.2366 16.9776L16.9776 19.2366L15.4718 18.3411L15.1182 18.5236C14.7157 18.7313 14.3089 18.901 13.9064 19.0296L13.5269 19.1511L13.0978 20.8438H9.90294L9.47313 19.1518L9.09363 19.0303C8.69113 18.9017 8.28431 18.7321 7.88181 18.5243L7.52819 18.3418L6.02241 19.2373L3.76338 16.9783L4.65894 15.4718L4.47494 15.1175C4.26794 14.7164 4.09759 14.3096 3.96894 13.9078L3.84819 13.5283L2.15625 13.0978V9.90222Z" fill="#72AFE2"/>
<path d="M11.5 17.9688C15.0672 17.9688 17.9688 15.0664 17.9688 11.5C17.9688 7.93356 15.0672 5.03125 11.5 5.03125C7.93284 5.03125 5.03125 7.93356 5.03125 11.5C5.03125 15.0664 7.93284 17.9688 11.5 17.9688ZM11.5 6.46875C14.2737 6.46875 16.5312 8.72563 16.5312 11.5C16.5312 14.2744 14.2737 16.5312 11.5 16.5312C8.72634 16.5312 6.46875 14.2744 6.46875 11.5C6.46875 8.72563 8.72634 6.46875 11.5 6.46875Z" fill="#72AFE2"/>
<path d="M41.6875 38.0938H21.3929L17.572 40.0042C16.9302 40.3248 16.5312 40.9702 16.5312 41.6875C16.5312 42.4048 16.9302 43.0502 17.5713 43.3708L21.3929 45.2812H41.6875C43.6691 45.2812 45.2812 43.6691 45.2812 41.6875C45.2812 39.7059 43.6691 38.0938 41.6875 38.0938ZM22.2812 42.4062H39.5312V43.8438H22.2812V42.4062ZM39.5312 40.9688H22.2812V39.5312H39.5312V40.9688ZM17.9688 41.6875C17.9688 41.5179 18.0629 41.3662 18.2146 41.29L20.8438 39.9754V43.3996L18.2146 42.085C18.0629 42.0088 17.9688 41.8571 17.9688 41.6875ZM41.6875 43.8438H40.9688V39.5312H41.6875C42.8763 39.5312 43.8438 40.4987 43.8438 41.6875C43.8438 42.8763 42.8763 43.8438 41.6875 43.8438Z" fill="#72AFE2"/>
<path d="M38.0938 10.7812H37.9917C37.6704 9.545 36.5549 8.625 35.2188 8.625C33.8826 8.625 32.7671 9.545 32.4458 10.7812H23.7188V12.2188H32.4458C32.7671 13.455 33.8826 14.375 35.2188 14.375C36.5549 14.375 37.6704 13.455 37.9917 12.2188H38.0938C41.2642 12.2188 43.8438 14.7983 43.8438 17.9688V22.2812C43.8438 25.4517 41.2642 28.0312 38.0938 28.0312H35.8354C35.5142 26.795 34.3987 25.875 33.0625 25.875C31.7263 25.875 30.6108 26.795 30.2896 28.0312H25.7729C25.4517 26.795 24.3362 25.875 23 25.875C21.6638 25.875 20.5483 26.795 20.2271 28.0312H15.7104C15.3892 26.795 14.2737 25.875 12.9375 25.875C11.6013 25.875 10.4858 26.795 10.1646 28.0312H7.90625C3.94306 28.0312 0.71875 31.2556 0.71875 35.2188C0.71875 39.1819 3.94306 42.4062 7.90625 42.4062H15.0938V40.9688H7.90625C4.73584 40.9688 2.15625 38.3892 2.15625 35.2188C2.15625 32.0483 4.73584 29.4688 7.90625 29.4688H10.1646C10.4858 30.705 11.6013 31.625 12.9375 31.625C14.2737 31.625 15.3892 30.705 15.7104 29.4688H20.2271C20.5483 30.705 21.6638 31.625 23 31.625C24.3362 31.625 25.4517 30.705 25.7729 29.4688H30.2896C30.6108 30.705 31.7263 31.625 33.0625 31.625C34.3987 31.625 35.5142 30.705 35.8354 29.4688H38.0938C42.0569 29.4688 45.2812 26.2444 45.2812 22.2812V17.9688C45.2812 14.0056 42.0569 10.7812 38.0938 10.7812ZM35.2188 12.9375C34.426 12.9375 33.7812 12.2928 33.7812 11.5C33.7812 10.7072 34.426 10.0625 35.2188 10.0625C36.0115 10.0625 36.6562 10.7072 36.6562 11.5C36.6562 12.2928 36.0115 12.9375 35.2188 12.9375ZM12.9375 30.1875C12.1447 30.1875 11.5 29.5428 11.5 28.75C11.5 27.9572 12.1447 27.3125 12.9375 27.3125C13.7303 27.3125 14.375 27.9572 14.375 28.75C14.375 29.5428 13.7303 30.1875 12.9375 30.1875ZM23 30.1875C22.2072 30.1875 21.5625 29.5428 21.5625 28.75C21.5625 27.9572 22.2072 27.3125 23 27.3125C23.7928 27.3125 24.4375 27.9572 24.4375 28.75C24.4375 29.5428 23.7928 30.1875 23 30.1875ZM33.0625 30.1875C32.2697 30.1875 31.625 29.5428 31.625 28.75C31.625 27.9572 32.2697 27.3125 33.0625 27.3125C33.8553 27.3125 34.5 27.9572 34.5 28.75C34.5 29.5428 33.8553 30.1875 33.0625 30.1875Z" fill="#72AFE2"/>
<path d="M23.7188 15.8125H33.7812V17.25H23.7188V15.8125Z" fill="#72AFE2"/>
<path d="M23.7188 18.6875H33.7812V20.125H23.7188V18.6875Z" fill="#72AFE2"/>
<path d="M29.4688 21.5625H30.9062V23H29.4688V21.5625Z" fill="#72AFE2"/>
<path d="M26.5938 21.5625H28.0312V23H26.5938V21.5625Z" fill="#72AFE2"/>
<path d="M32.3438 21.5625H33.7812V23H32.3438V21.5625Z" fill="#72AFE2"/>
<path d="M23.7188 21.5625H25.1562V23H23.7188V21.5625Z" fill="#72AFE2"/>
<path d="M12.2188 34.5H13.6562V35.9375H12.2188V34.5Z" fill="#72AFE2"/>
<path d="M9.34375 34.5H10.7812V35.9375H9.34375V34.5Z" fill="#72AFE2"/>
<path d="M3.59375 34.5H5.03125V35.9375H3.59375V34.5Z" fill="#72AFE2"/>
<path d="M6.46875 34.5H7.90625V35.9375H6.46875V34.5Z" fill="#72AFE2"/>
</svg>
