<svg width="46" height="46" viewBox="0 0 46 46" fill="none" xmlns="http://www.w3.org/2000/svg">
<path d="M36.1172 14.9141C35.6213 14.9141 35.2188 15.3166 35.2188 15.8125C35.2188 16.3084 35.6213 16.7109 36.1172 16.7109C36.6131 16.7109 37.0156 16.3084 37.0156 15.8125C37.0156 15.3166 36.6131 14.9141 36.1172 14.9141Z" fill="#72AFE2"/>
<path d="M43.3047 11.3203H33.438L30.5895 5.62305C30.1297 4.70386 29.206 4.13281 28.1786 4.13281H17.8214C16.7939 4.13281 15.8701 4.70386 15.4105 5.62314L12.562 11.3203H10.7812V10.4219C10.7812 8.93568 9.57213 7.72656 8.08594 7.72656H6.28906C4.80287 7.72656 3.59375 8.93568 3.59375 10.4219V11.3203H2.69531C1.20912 11.3203 0 12.5294 0 14.0156C0 16.4571 0 38.2221 0 39.1719C0 40.6581 1.20912 41.8672 2.69531 41.8672H43.3047C44.7909 41.8672 46 40.6581 46 39.1719C46 36.7304 46 14.9654 46 14.0156C46 12.5294 44.7909 11.3203 43.3047 11.3203ZM17.0178 6.4267C17.171 6.12016 17.4789 5.92969 17.8214 5.92969H28.1786C28.5211 5.92969 28.8291 6.12016 28.9823 6.4267L31.4291 11.3203H14.5709L17.0178 6.4267ZM5.39062 10.4219C5.39062 9.92648 5.79366 9.52344 6.28906 9.52344H8.08594C8.58134 9.52344 8.98438 9.92648 8.98438 10.4219V11.3203H5.39062V10.4219ZM1.79688 20.2957H13.1577C11.9637 22.1609 11.3203 24.3469 11.3203 26.5938C11.3203 28.8407 11.9638 31.0179 13.1576 32.8828H1.79688V20.2957ZM23 16.7109C28.4026 16.7109 32.8828 21.088 32.8828 26.5938C32.8828 32.0933 28.4089 36.4766 23 36.4766C17.5863 36.4766 13.1172 32.0884 13.1172 26.5938C13.1172 21.0949 17.5905 16.7109 23 16.7109ZM44.2031 39.1719C44.2031 39.6673 43.8001 40.0703 43.3047 40.0703H2.69531C2.19991 40.0703 1.79688 39.6673 1.79688 39.1719V34.6797H14.575C16.7703 36.9682 19.8173 38.2734 23 38.2734C26.1833 38.2734 29.2305 36.9678 31.4251 34.6797H44.2031V39.1719ZM44.2031 32.8828H32.8423C34.0363 31.0176 34.6797 28.8407 34.6797 26.5938C34.6797 24.3468 34.0363 22.1699 32.8423 20.3047H44.2031V32.8828ZM44.2031 18.5078H31.425C29.2298 16.2193 26.1828 14.9141 23 14.9141C19.8168 14.9141 16.7696 16.2197 14.5749 18.5078H1.79688V14.0156C1.79688 13.5202 2.19991 13.1172 2.69531 13.1172C3.51118 13.1172 42.0417 13.1172 43.3047 13.1172C43.8001 13.1172 44.2031 13.5202 44.2031 14.0156V18.5078Z" fill="#72AFE2"/>
<path d="M25.6953 7.72656H20.3047C19.8085 7.72656 19.4062 8.12879 19.4062 8.625C19.4062 9.12121 19.8085 9.52344 20.3047 9.52344H25.6953C26.1914 9.52344 26.5938 9.12121 26.5938 8.625C26.5938 8.12879 26.1914 7.72656 25.6953 7.72656Z" fill="#72AFE2"/>
<path d="M23 18.5078C18.5414 18.5078 14.9141 22.1352 14.9141 26.5938C14.9141 31.0523 18.5414 34.6797 23 34.6797C27.4586 34.6797 31.0859 31.0523 31.0859 26.5938C31.0859 22.1352 27.4586 18.5078 23 18.5078ZM23 32.8828C19.5322 32.8828 16.7109 30.0615 16.7109 26.5938C16.7109 23.126 19.5322 20.3047 23 20.3047C26.4678 20.3047 29.2891 23.126 29.2891 26.5938C29.2891 30.0615 26.4678 32.8828 23 32.8828Z" fill="#72AFE2"/>
<path d="M23 22.1016C20.523 22.1016 18.5078 24.1168 18.5078 26.5938C18.5078 27.09 18.91 27.4922 19.4062 27.4922C19.9025 27.4922 20.3047 27.09 20.3047 26.5938C20.3047 25.1076 21.5138 23.8984 23 23.8984C23.4961 23.8984 23.8984 23.4962 23.8984 23C23.8984 22.5038 23.4961 22.1016 23 22.1016Z" fill="#72AFE2"/>
<path d="M41.5078 14.9141H39.7109C39.2148 14.9141 38.8125 15.3163 38.8125 15.8125C38.8125 16.3087 39.2148 16.7109 39.7109 16.7109H41.5078C42.0039 16.7109 42.4062 16.3087 42.4062 15.8125C42.4062 15.3163 42.0039 14.9141 41.5078 14.9141Z" fill="#72AFE2"/>
</svg>
