<svg width="48" height="48" viewBox="0 0 48 48" fill="none" xmlns="http://www.w3.org/2000/svg">
<g clip-path="url(#clip0)">
<path d="M46.3566 3.4375H31.9371C31.5481 3.4375 31.2327 3.75278 31.2327 4.14184C31.2327 4.53091 31.5481 4.84619 31.9371 4.84619H46.3566C46.486 4.84619 46.5913 4.95147 46.5913 5.08094V12.7347H45.0731C44.7312 9.08772 41.6539 6.22366 37.9191 6.22366C34.1842 6.22366 31.1069 9.08772 30.765 12.7347H1.40869V5.08094C1.40869 4.95147 1.51406 4.84619 1.64344 4.84619H28.4128C28.8018 4.84619 29.1172 4.53091 29.1172 4.14184C29.1172 3.75278 28.8018 3.4375 28.4128 3.4375H1.64344C0.73725 3.4375 0 4.17475 0 5.08094V35.4258C0 36.3319 0.73725 37.0692 1.64344 37.0692H10.0012V37.1766C10.0012 37.7707 10.3084 38.3028 10.8228 38.5998C11.3373 38.897 11.9517 38.8968 12.4662 38.5998L15.1174 37.0692H23.2752L23.3262 37.6065C23.357 37.9303 23.164 38.2311 22.8569 38.3381C22.2514 38.5748 21.202 38.7692 20.8674 39.4026L20.4776 40.0102C19.9884 40.7729 20.2109 41.7915 20.9737 42.2808L24.1272 44.3037C24.8641 44.7965 25.9353 44.5608 26.3979 43.8078L33.6303 32.5328H35.801C36.7072 32.5328 37.4444 31.7956 37.4444 30.8894V30.4263H38.4417C39.3479 30.4263 40.0852 29.689 40.0852 28.7828V25.6865C40.0852 24.7803 39.3479 24.0431 38.4417 24.0431H37.4444V23.58C37.4444 22.6738 36.7072 21.9365 35.801 21.9365H24.8059C23.6078 21.9365 22.4262 21.6199 21.3887 21.0209L12.4664 15.8696C11.9518 15.5725 11.3375 15.5726 10.823 15.8696C10.3085 16.1667 10.0013 16.6987 10.0013 17.2928V24.0431H7.51875C6.61256 24.0431 5.87531 24.7803 5.87531 25.6865V28.7828C5.87531 29.689 6.61256 30.4263 7.51875 30.4263H10.0013V35.6605H1.64344C1.51397 35.6605 1.40869 35.5552 1.40869 35.4258V14.1433H30.7693C31.1376 17.7633 34.2036 20.5974 37.9191 20.5974C41.6346 20.5974 44.7006 17.7633 45.0688 14.1433H46.5913V35.4258C46.5913 35.5552 46.4859 35.6605 46.3566 35.6605H34.572C34.183 35.6605 33.8677 35.9758 33.8677 36.3648C33.8677 36.7539 34.183 37.0692 34.572 37.0692H46.3566C47.2627 37.0692 48 36.3319 48 35.4258V5.08094C48 4.17475 47.2627 3.4375 46.3566 3.4375ZM23.4643 35.3545C23.4024 35.451 23.3525 35.554 23.3123 35.6605H17.5573L21.3887 33.4485C22.4262 32.8494 23.6078 32.5328 24.8059 32.5328H25.2742L23.4643 35.3545ZM25.2123 43.0473C25.1046 43.1708 25.0375 43.1854 24.8879 43.1181L21.7343 41.0953C21.6253 41.0254 21.5935 40.8798 21.6635 40.7708L22.0532 40.1632C22.192 39.9341 22.4202 39.9483 23.3208 39.6682C24.2213 39.3882 24.8208 38.4445 24.7286 37.4734L24.6139 36.2638C24.609 36.2118 24.6218 36.1589 24.65 36.1149L26.9478 32.5327H31.9568L25.2123 43.0473ZM38.4418 25.4518C38.5713 25.4518 38.6766 25.5571 38.6766 25.6865V28.7828C38.6766 28.9123 38.5712 29.0176 38.4418 29.0176H37.4445V25.4517H38.4418V25.4518ZM35.8011 23.3452C35.9305 23.3452 36.0358 23.4505 36.0358 23.58V30.8894C36.0358 31.0188 35.9304 31.1241 35.8011 31.1241H30.1835V23.3451H35.8011V23.3452ZM11.4098 17.2928C11.4271 17.0821 11.5999 17.0103 11.762 17.0895L14.2287 18.5136V32.4448C14.2287 32.8338 14.5441 33.1491 14.9331 33.1491C15.322 33.1491 15.6374 32.8338 15.6374 32.4448V19.327L20.6843 22.2408C21.9357 22.9634 23.3609 23.3452 24.8059 23.3452H28.7748V31.1242H24.8059C23.3609 31.1242 21.9357 31.5061 20.6843 32.2286L11.7621 37.3799C11.5668 37.4602 11.4394 37.384 11.4098 37.1766C11.4098 37.1765 11.4098 17.2928 11.4098 17.2928ZM7.51875 29.0177C7.38928 29.0177 7.284 28.9124 7.284 28.7829V25.6866C7.284 25.5572 7.38928 25.4519 7.51875 25.4519H10.0013V29.0178H7.51875V29.0177ZM37.9191 19.1887C34.733 19.1887 32.1409 16.5966 32.1409 13.4104C32.1409 10.2243 34.733 7.63225 37.9191 7.63225C41.1052 7.63225 43.6973 10.2243 43.6973 13.4105C43.6973 16.5967 41.1052 19.1887 37.9191 19.1887Z" fill="#72AFE2"/>
<path d="M5.2062 10.1375C5.96473 10.1375 6.57964 9.52259 6.57964 8.76406C6.57964 8.00553 5.96473 7.39062 5.2062 7.39062C4.44767 7.39062 3.83276 8.00553 3.83276 8.76406C3.83276 9.52259 4.44767 10.1375 5.2062 10.1375Z" fill="#72AFE2"/>
<path d="M9.38296 10.1375C10.1415 10.1375 10.7564 9.52259 10.7564 8.76406C10.7564 8.00553 10.1415 7.39062 9.38296 7.39062C8.62443 7.39062 8.00952 8.00553 8.00952 8.76406C8.00952 9.52259 8.62443 10.1375 9.38296 10.1375Z" fill="#72AFE2"/>
<path d="M13.5597 10.1375C14.3182 10.1375 14.9332 9.52259 14.9332 8.76406C14.9332 8.00553 14.3182 7.39062 13.5597 7.39062C12.8012 7.39062 12.1863 8.00553 12.1863 8.76406C12.1863 9.52259 12.8012 10.1375 13.5597 10.1375Z" fill="#72AFE2"/>
<path d="M38.6923 12.7167C38.2199 12.5497 37.699 12.3491 37.417 12.128C37.3855 12.1034 37.351 12.0038 37.3765 11.8685C37.3888 11.803 37.4458 11.584 37.6599 11.5195C38.1461 11.3729 38.4552 11.615 38.4889 11.6433L38.4772 11.6328L38.5625 11.6807C39.2564 12.0705 39.9628 11.1903 39.4321 10.5971C39.2661 10.4439 38.972 10.2585 38.5903 10.1518V10.0647C38.5903 9.67563 38.275 9.36035 37.886 9.36035C37.497 9.36035 37.1816 9.67563 37.1816 10.0647V10.1951C36.5703 10.4084 36.1175 10.9425 35.992 11.6077C35.8712 12.249 36.0841 12.8731 36.5475 13.2364C36.9885 13.5824 37.6134 13.8294 38.2227 14.0449C38.6097 14.1817 38.649 14.4601 38.6138 14.6696C38.5637 14.9674 38.3131 15.2893 37.8813 15.2921C37.3885 15.2948 37.2604 15.2752 36.8957 15.0367C36.5469 14.8086 36.0711 14.9296 35.8789 15.3136C35.7161 15.6387 35.8453 16.0355 36.1509 16.2327C36.5361 16.4812 36.8427 16.6024 37.1815 16.6582V16.757C37.1815 17.1461 37.4969 17.4614 37.8859 17.4614C38.2749 17.4614 38.5902 17.1461 38.5902 16.757V16.5812C39.3799 16.3077 39.8856 15.6018 40.003 14.9032C40.1666 13.9303 39.6399 13.0517 38.6923 12.7167Z" fill="#72AFE2"/>
</g>
<defs>
<clipPath id="clip0">
<rect width="48" height="48" fill="white"/>
</clipPath>
</defs>
</svg>
