<svg width="44" height="44" viewBox="0 0 44 44" fill="none" xmlns="http://www.w3.org/2000/svg">
<g clip-path="url(#clip0)">
<path d="M21.9999 31.0842C28.4674 31.0842 33.7103 25.8412 33.7103 19.3738C33.7103 12.9063 28.4674 7.66341 21.9999 7.66341C15.5325 7.66341 10.2896 12.9063 10.2896 19.3738C10.2896 25.8412 15.5325 31.0842 21.9999 31.0842Z" fill="#70ABDC"/>
<path d="M35.7601 5.69959C32.0847 2.02417 27.1979 0 21.9999 0C16.802 0 11.9151 2.02417 8.23972 5.69959C4.56421 9.37519 2.54004 14.2619 2.54004 19.4599C2.54004 28.6301 8.95095 36.547 17.8571 38.4762L21.9999 44L26.1428 38.4761C35.0489 36.5469 41.4598 28.6301 41.4598 19.4599C41.4598 14.2619 39.4356 9.37519 35.7601 5.69959ZM21.9999 5.08024C29.8814 5.08024 36.2935 11.4924 36.2935 19.3738C36.2935 27.2552 29.8814 33.6673 21.9999 33.6673C14.1184 33.6673 7.70638 27.2552 7.70638 19.3738C7.70638 11.4924 14.1184 5.08024 21.9999 5.08024Z" fill="#70ABDC"/>
</g>
<defs>
<clipPath id="clip0">
<rect width="44" height="44" fill="white"/>
</clipPath>
</defs>
</svg>
