<svg width="23" height="23" viewBox="0 0 23 23" fill="none" xmlns="http://www.w3.org/2000/svg">
<path d="M19.7139 8.2143H18.8924V7.39285C18.8924 3.30989 15.5825 0 11.4996 0C7.4166 0 4.10671 3.30989 4.10671 7.39285V8.2143H3.28531C2.83163 8.2143 2.46387 8.58206 2.46387 9.03574V22.1786C2.46387 22.6322 2.83163 23 3.28531 23H19.7139C20.1675 23 20.5353 22.6322 20.5353 22.1786V9.03569C20.5353 8.58206 20.1675 8.2143 19.7139 8.2143ZM13.8229 15.5969C13.5748 16.2987 13.0228 16.8507 12.321 17.0989V18.8929C12.321 19.3466 11.9532 19.7143 11.4996 19.7143C11.0459 19.7143 10.6781 19.3466 10.6781 18.8929V17.0989C9.39495 16.6452 8.72252 15.2372 9.1762 13.9541C9.62988 12.6709 11.0378 11.9985 12.321 12.4521C13.6042 12.9058 14.2766 14.3138 13.8229 15.5969ZM17.2496 8.2143H5.7496V7.39285C5.7496 4.2172 8.32395 1.64284 11.4996 1.64284C14.6753 1.64284 17.2496 4.2172 17.2496 7.39285V8.2143Z" fill="#70ABDC"/>
</svg>
