<svg width="154" height="46" viewBox="0 0 154 46" fill="none" xmlns="http://www.w3.org/2000/svg">
<path d="M22.1968 45.3644V38.9894H8.75196L21.6546 21.9499V15.6158H0.67041V21.9908H12.899L0 38.9894V45.3644H22.1968Z" fill="#70ABDC"/>
<path d="M46.4194 45.3495V42.9705L36.66 15.6121H29.5823L19.8668 42.9854V45.3495H26.2302L28.3257 38.9337H37.6235L39.675 45.3495H46.4194ZM35.6123 32.8263H30.3369L33.0186 24.7118L35.6123 32.8263Z" fill="#70ABDC"/>
<path d="M56.5159 45.3644L66.191 18.0394V15.6158H59.3624L53.0832 35.5473L46.588 15.6158H39.6787V18.0394L49.3941 45.3644H56.5159Z" fill="#70ABDC"/>
<path d="M86.6476 21.9908H90.2928C93.3078 21.9908 94.982 23.6895 94.982 25.6039V35.3763C94.982 37.2349 93.3078 38.9894 90.2928 38.9894H86.6476V21.9908ZM90.2928 45.3495C97.7882 45.3495 102.188 41.6955 102.188 35.1942V25.7712C102.188 19.3293 97.7039 15.6121 90.2928 15.6121H79.4453V45.3495H90.2928Z" fill="#70ABDC"/>
<path d="M120.926 35.5064C120.926 37.5025 119.377 39.2868 116.234 39.2868C113.09 39.2868 111.544 37.5025 111.544 35.5064V25.4329C111.544 23.5223 113.094 21.6934 116.234 21.6934C119.373 21.6934 120.926 23.5223 120.926 25.4329V35.5064ZM116.234 46C119.897 46 122.769 45.067 124.905 43.1526C127.041 41.2383 128.129 38.6065 128.129 35.2499V25.8157C128.129 22.4145 127.03 19.7791 124.905 17.8684C122.78 15.9578 119.879 14.9802 116.234 14.9802C112.588 14.9802 109.658 15.9541 107.522 17.8684C105.386 19.7828 104.338 22.4145 104.338 25.8157V35.2499C104.338 38.5954 105.437 41.242 107.566 43.1526C109.694 45.0633 112.592 46 116.234 46Z" fill="#70ABDC"/>
<path d="M144.325 45.3644L154 18.0394V15.6158H147.171L140.889 35.5473L134.397 15.6158H127.488V18.0394L137.203 45.3644H144.325Z" fill="#70ABDC"/>
<path d="M76.0384 43.6433H73.5143V42.9222L76.0384 41.4799V39.8072H75.4852L73.3238 41.1008C73.12 40.7526 72.8253 40.4684 72.4724 40.2795C72.1194 40.0905 71.7218 40.0043 71.3236 40.0302C69.9314 40.0302 69.1255 40.8108 69.1255 42.2903V45.3495H76.0311V43.6284L76.0384 43.6433ZM70.6128 43.6433V42.5802C70.6128 42.0301 70.7997 41.7699 71.3455 41.7699C71.8914 41.7699 72.1039 42.0301 72.1039 42.5802V43.6433H70.6128Z" fill="white"/>
<path d="M76.0384 35.1533H74.5584V38.1345H73.2762V35.6328H71.8731V38.1345H70.6128V35.1719H69.1328V39.8555H76.0384V35.1533Z" fill="white"/>
<path d="M76.0384 28.9939H75.4852L69.1328 31.3283V33.0196L75.4852 35.3429H76.0384V33.8263L74.5474 33.3282V31.0979L76.0384 30.6072V28.9939ZM73.1296 31.596V32.8561L71.243 32.2167L73.1296 31.596Z" fill="white"/>
<path d="M76.0384 24.5296H74.5584V27.5331H69.1328V29.2541H76.0384V24.5296Z" fill="white"/>
<path d="M76.0384 22.4071H70.6128V20.5374H69.1328V26.0128H70.6128V24.1319H76.0384V22.4071Z" fill="white"/>
<path d="M76.0384 17.809H73.2469L69.6933 15.6158H69.1328V17.2179L71.6569 18.6379L69.1328 20.0504V21.6934H69.6933L73.3055 19.5412H76.0384V17.809Z" fill="white"/>
<path fill-rule="evenodd" clip-rule="evenodd" d="M72.5837 0C73.8099 0 74.9858 0.494236 75.8528 1.37398C76.7199 2.25373 77.2069 3.44692 77.2069 4.69107C77.2069 7.29309 74.2139 9.96945 72.5837 11.9916C70.8399 9.99547 67.9641 7.27822 67.9641 4.69107C67.9641 3.44757 68.4507 2.25494 69.3169 1.3753C70.1832 0.495657 71.3582 0.000985345 72.5837 0V0Z" fill="#70ABDC"/>
<path fill-rule="evenodd" clip-rule="evenodd" d="M72.5837 2.41988C73.0266 2.41914 73.4597 2.55172 73.8283 2.80084C74.1968 3.04995 74.4843 3.4044 74.6543 3.81934C74.8243 4.23429 74.8691 4.69106 74.7832 5.13188C74.6972 5.57269 74.4843 5.97772 74.1714 6.29573C73.8585 6.61373 73.4597 6.83041 73.0254 6.91835C72.5911 7.00628 72.1408 6.96152 71.7316 6.78973C71.3224 6.61794 70.9726 6.32684 70.7265 5.95326C70.4804 5.57969 70.349 5.14043 70.349 4.69107C70.3485 4.39299 70.406 4.09774 70.5181 3.8222C70.6301 3.54667 70.7947 3.29627 71.0022 3.08532C71.2098 2.87437 71.4563 2.70702 71.7277 2.59284C71.999 2.47865 72.2899 2.41988 72.5837 2.41988Z" fill="#3B4447"/>
</svg>
