<svg width="40" height="40" viewBox="0 0 40 40" fill="none" xmlns="http://www.w3.org/2000/svg">
<path d="M20 0C8.97214 0 0 8.97214 0 20C0 31.0279 8.97214 40 20 40C23.5169 40 26.9751 39.0747 30.0024 37.323L27.5 32.9944C25.232 34.3066 22.6379 35 20 35C11.7285 35 4.99998 28.2714 4.99998 20C4.99998 11.7285 11.7285 4.99998 20 4.99998C28.2714 4.99998 35 11.7285 35 20V22.1777C35 23.8135 33.949 25 32.5 25C31.1218 25 30 23.8781 30 22.4999V12.5H26.5441C24.7853 10.9635 22.5132 9.99996 20 9.99996C14.4861 9.99996 9.99996 14.4861 9.99996 20C9.99996 25.5139 14.4861 30 20 30C22.6257 30 24.9997 28.9617 26.7859 27.3005C28.1628 28.9367 30.1991 30 32.5 30C36.7053 30 40 26.5638 40 22.1777V20C40 8.97214 31.0279 0 20 0V0ZM20 25C17.2424 25 15 22.7575 15 20C15 17.2424 17.2425 15 20 15C22.7576 15 25 17.2425 25 20C25 22.7576 22.7576 25 20 25Z" fill="#70ABDC"/>
</svg>
