<svg width="30" height="30" viewBox="0 0 30 30" fill="none" xmlns="http://www.w3.org/2000/svg">
<g clip-path="url(#clip0)">
<path d="M26.3601 6.07417L15.0848 0.066105C14.9175 -0.0231702 14.717 -0.0219173 14.551 0.0692375L3.58771 6.07731C3.4079 6.17598 3.29639 6.36455 3.29639 6.56973V14.4178C3.30296 20.8691 7.1252 26.7055 13.0362 29.2901L14.5579 29.9533C14.7001 30.0153 14.8621 30.0156 15.0046 29.9539L16.7193 29.2134C22.7399 26.6849 26.6567 20.7921 26.6574 14.2621V6.56973C26.6574 6.36236 26.543 6.17159 26.3601 6.07417ZM25.5347 14.2621C25.5334 20.3419 21.8857 25.8278 16.2798 28.1806L16.2761 28.1825L14.7828 28.8272L13.4854 28.2611C7.98318 25.8554 4.42501 20.4231 4.41875 14.4178V6.90209L14.8245 1.19912L25.5347 6.90616V14.2621Z" fill="#6DA9DB"/>
<path d="M10.683 14.0538C10.4816 13.818 10.1273 13.7901 9.89147 13.9915C9.6556 14.1926 9.62772 14.5472 9.82914 14.7828L12.7943 18.2551C12.9923 18.4869 13.3391 18.5185 13.5752 18.3262L20.4811 12.7078C20.7216 12.5123 20.758 12.1587 20.5622 11.9181C20.3667 11.6779 20.0131 11.6412 19.7725 11.837L13.2921 17.1089L10.683 14.0538Z" fill="#6DA9DB"/>
</g>
<defs>
<clipPath id="clip0">
<rect width="30" height="30" fill="white"/>
</clipPath>
</defs>
</svg>
