<svg width="30" height="30" viewBox="0 0 30 30" fill="none" xmlns="http://www.w3.org/2000/svg">
<g clip-path="url(#clip0)">
<path d="M29.1264 7.80419H28.1361C25.5004 2.99859 20.4918 0.0248413 15 0.0248413C9.51129 0.0248413 4.49973 2.99959 1.86409 7.80419H0.873564C0.391873 7.80419 0 8.19606 0 8.67776V21.3222C0 21.8039 0.391931 22.1958 0.873564 22.1958H1.86409C4.49973 27.0002 9.51188 29.9751 15 29.9751C20.4918 29.9751 25.5004 27.0014 28.1361 22.1958H29.1265C29.6082 22.1958 30.0001 21.8039 30.0001 21.3222V8.67776C30 8.19606 29.6081 7.80419 29.1264 7.80419ZM0.879427 8.68362H19.053L18.1736 9.56304H4.32355C4.08066 9.56304 3.88384 9.75992 3.88384 10.0028C3.88384 10.932 3.12783 11.688 2.19857 11.688C1.95567 11.688 1.75885 11.8849 1.75885 12.1277V17.8722C1.75885 18.1151 1.95567 18.3119 2.19857 18.3119C3.12789 18.3119 3.88384 19.0679 3.88384 19.9972C3.88384 20.24 4.08066 20.4369 4.32355 20.4369H7.29971L6.42028 21.3163H0.879427V8.68362ZM19.9324 7.80419H5.7246C7.93501 4.96218 11.3189 3.27309 14.9223 3.24964C17.4971 3.23293 19.9476 4.03708 22.0101 5.5752C22.0377 5.59577 22.0452 5.62321 22.0466 5.64256C22.0478 5.65909 22.0457 5.69093 22.0185 5.71819L19.9324 7.80419ZM8.17914 19.5575H4.72557C4.54124 18.4949 3.70092 17.6545 2.63828 17.4703V12.5297C3.70092 12.3454 4.54124 11.5051 4.72557 10.4424H12.0388C10.5496 11.4133 9.56306 13.0935 9.56306 15C9.56306 15.8906 9.78046 16.7626 10.1937 17.5428L8.17914 19.5575ZM29.1206 21.3163H27.8678C27.8677 21.3163 27.8677 21.3163 27.8676 21.3163H14.6179C14.375 21.3163 14.1782 21.5132 14.1782 21.7561C14.1782 21.9989 14.375 22.1958 14.6179 22.1958H24.2753C23.6191 23.0391 22.8523 23.7896 21.9872 24.4329C21.7924 24.5778 21.7518 24.8533 21.8967 25.0482C21.983 25.1642 22.1156 25.2255 22.2499 25.2255C22.3411 25.2255 22.4331 25.1973 22.512 25.1386C23.6218 24.3134 24.5814 23.324 25.3676 22.1958H27.1236C24.586 26.4703 20.0062 29.0957 15 29.0957C9.99703 29.0957 5.4144 26.4693 2.87666 22.1958H4.62637C4.70605 22.3103 4.78713 22.4242 4.87032 22.5358C5.03888 22.7618 5.2972 22.9032 5.57908 22.9236C5.60271 22.9253 5.62634 22.9262 5.64985 22.9262C5.90793 22.9262 6.15634 22.824 6.34014 22.6402L12.9339 16.0465C13.1056 15.8748 13.1056 15.5964 12.9339 15.4247C12.7622 15.2531 12.4838 15.2529 12.312 15.4247L10.8507 16.8861C10.5829 16.2971 10.4425 15.6547 10.4425 15C10.4425 12.487 12.487 10.4425 15 10.4425C15.6547 10.4425 16.297 10.5828 16.886 10.8506L13.637 14.0996C13.4653 14.2713 13.4653 14.5497 13.637 14.7214C13.7229 14.8072 13.8355 14.8502 13.948 14.8502C14.0605 14.8502 14.1731 14.8073 14.259 14.7214L22.6403 6.34006C22.8409 6.13949 22.9442 5.86206 22.9237 5.57907C22.9032 5.29718 22.7618 5.03886 22.5358 4.87025C20.3411 3.23352 17.7379 2.36998 15.0011 2.36998C14.9731 2.36998 14.9446 2.37004 14.9165 2.37021C10.8198 2.39683 6.98839 4.42573 4.63376 7.80419H2.8766C5.41434 3.53053 9.99662 0.904268 15 0.904268C20.0063 0.904268 24.586 3.52971 27.1237 7.80419H25.3737C25.2938 7.68946 25.2128 7.57542 25.1298 7.46415C24.9612 7.23813 24.7029 7.09672 24.421 7.07632C24.137 7.05592 23.8605 7.1591 23.66 7.35973L7.35969 23.6599C7.15912 23.8605 7.05582 24.1379 7.07634 24.4209C7.09674 24.7027 7.23809 24.9611 7.46416 25.1297C9.65886 26.7664 12.2621 27.6301 14.9989 27.63C15.0269 27.63 15.0554 27.6299 15.0835 27.6298C17.09 27.6167 19.0885 27.1148 20.8632 26.1783C21.078 26.065 21.1602 25.799 21.0468 25.5843C20.9336 25.3695 20.6677 25.2873 20.4528 25.4006C18.8024 26.2714 16.9437 26.7382 15.0777 26.7503C12.5032 26.7684 10.0523 25.9629 7.98988 24.4248C7.96227 24.4042 7.95477 24.3768 7.95342 24.3574C7.95219 24.3408 7.9543 24.309 7.9815 24.2817L10.0674 22.1958H12.744C12.9869 22.1958 13.1837 21.9989 13.1837 21.7561C13.1837 21.5132 12.9869 21.3163 12.744 21.3163H10.9469L11.8263 20.4369H25.6764C25.9193 20.4369 26.1161 20.24 26.1161 19.9972C26.1161 19.0679 26.8721 18.3119 27.8014 18.3119C28.0443 18.3119 28.2411 18.1151 28.2411 17.8722V12.1277C28.2411 11.8849 28.0443 11.688 27.8014 11.688C26.8721 11.688 26.1161 10.932 26.1161 10.0028C26.1161 9.75992 25.9193 9.56304 25.6764 9.56304H22.7003L23.5798 8.68362H29.1206V21.3163ZM13.114 19.1494L19.1494 13.114C19.4172 13.703 19.5576 14.3454 19.5576 15C19.5576 17.5131 17.5131 19.5576 15 19.5576C14.3454 19.5575 13.703 19.4172 13.114 19.1494ZM20.437 15C20.437 14.1094 20.2196 13.2375 19.8063 12.4571L21.8209 10.4425H25.2745C25.4588 11.5051 26.2991 12.3454 27.3618 12.5298V17.4703C26.2991 17.6546 25.4588 18.495 25.2745 19.5576H17.9613C19.4505 18.5866 20.437 16.9064 20.437 15Z" fill="#6DA9DB"/>
</g>
<defs>
<clipPath id="clip0">
<rect width="30" height="30" fill="white"/>
</clipPath>
</defs>
</svg>
