<svg width="34" height="34" viewBox="0 0 34 34" fill="none" xmlns="http://www.w3.org/2000/svg">
<path d="M28.8933 19.8024L28.7358 19.8874C28.0994 19.1152 26.997 18.816 26.1571 19.2416C26.1541 19.2431 26.1512 19.2447 26.1482 19.2462L25.7764 19.4464C25.3329 19.0709 24.7843 18.8413 24.2056 18.789C23.6268 18.7368 23.046 18.8643 22.5424 19.1542L20.5399 20.2433H17.8753C17.2983 20.2425 16.7289 20.1121 16.2091 19.8615L15.8426 19.6842C14.799 19.1765 13.6352 18.9674 12.4801 19.0802C11.3251 19.193 10.2237 19.6233 9.29812 20.3234C9.28942 20.33 9.28092 20.3367 9.27282 20.3442L8.38782 21.132C8.05337 21.4291 7.65804 21.6494 7.2295 21.7777L6.72687 20.1278C6.70196 20.0461 6.65149 19.9746 6.58287 19.9238C6.51426 19.873 6.43114 19.8455 6.34576 19.8455H2.06568C2.00929 19.8455 1.95353 19.8575 1.90211 19.8806C1.85069 19.9038 1.80477 19.9376 1.76738 19.9798C1.72999 20.022 1.70199 20.0717 1.68524 20.1256C1.66848 20.1794 1.66334 20.2362 1.67016 20.2922L3.09684 31.9903C3.10861 32.0869 3.15534 32.1759 3.2282 32.2404C3.30107 32.3049 3.39503 32.3405 3.49235 32.3405H9.91211C9.97437 32.3405 10.0358 32.3259 10.0914 32.2979C10.147 32.2699 10.1952 32.2292 10.2323 32.1792C10.2694 32.1292 10.2942 32.0711 10.3047 32.0098C10.3153 31.9484 10.3114 31.8854 10.2932 31.8259L9.44985 29.0585L12.0765 27.3983C12.4279 27.2038 12.8403 27.1505 13.2296 27.2491C13.2379 27.2511 13.2462 27.253 13.2545 27.2545L18.5975 28.2383C20.0495 28.4982 21.5466 28.2868 22.8699 27.6351C22.8868 27.6268 22.9031 27.6172 22.9186 27.6066L32.16 21.2613C32.2437 21.2038 32.3023 21.1165 32.3238 21.0173C32.3454 20.9181 32.3282 20.8143 32.2758 20.7273C31.9395 20.1673 31.4002 19.7586 30.7701 19.5863C30.14 19.4139 29.4677 19.4914 28.8933 19.8024ZM26.5214 19.9503C27.0072 19.7071 27.6187 19.9065 28.0093 20.2792L24.5049 22.1698L24.2991 22.2783C24.1881 21.9632 24.0259 21.6686 23.8191 21.4063L26.5214 19.9503ZM22.928 19.8517C22.9311 19.8499 22.9346 19.8482 22.9374 19.8463C23.2513 19.6649 23.6081 19.571 23.9706 19.5744C24.3331 19.5778 24.6881 19.6784 24.9985 19.8657L23.2167 20.825C22.8771 20.5771 22.4895 20.4027 22.0787 20.3128L22.928 19.8517ZM3.84484 31.5436L2.51571 20.6424H6.05045L9.37408 31.5436H3.84484ZM22.4906 26.933C21.3272 27.4994 20.0139 27.6819 18.7401 27.4542L13.4103 26.4727C12.824 26.3279 12.2046 26.4119 11.678 26.7074C11.6719 26.7108 11.6657 26.7145 11.6597 26.7184L9.20827 28.2681L7.46178 22.5405C8.00032 22.3782 8.497 22.1004 8.91721 21.7265L9.78972 20.9496C10.5981 20.3419 11.5585 19.969 12.5652 19.8722C13.5719 19.7753 14.5858 19.9582 15.4952 20.4007L15.8617 20.5781C16.4897 20.8807 17.1777 21.0384 17.8748 21.0393H21.4292C21.9516 21.04 22.4573 21.2227 22.8597 21.5558C23.262 21.8889 23.5357 22.3518 23.6339 22.8648L21.0577 22.7483C20.1211 22.7062 19.1827 22.7495 18.254 22.8778C18.1501 22.8932 18.0566 22.949 17.9936 23.0331C17.9307 23.1171 17.9034 23.2226 17.9178 23.3266C17.9322 23.4306 17.9871 23.5247 18.0705 23.5885C18.1539 23.6523 18.2592 23.6805 18.3633 23.6671C19.2438 23.5454 20.1336 23.5044 21.0216 23.5444L24.0534 23.6815C24.0595 23.6815 24.0655 23.6819 24.0715 23.6819C24.1772 23.6819 24.2785 23.64 24.3533 23.5652C24.428 23.4905 24.4699 23.3892 24.4699 23.2835C24.4699 23.219 24.4672 23.1551 24.4633 23.0916L24.8791 22.8725L29.2718 20.5033C29.6091 20.3207 29.9974 20.2545 30.3762 20.3153C30.755 20.376 31.1031 20.5601 31.3665 20.8391L22.4906 26.933Z" fill="#6DA9DB"/>
<path d="M5.11157 29.8953C5.11157 30.1434 5.18514 30.386 5.32298 30.5923C5.46082 30.7985 5.65673 30.9593 5.88594 31.0543C6.11516 31.1492 6.36738 31.1741 6.61071 31.1256C6.85404 31.0772 7.07756 30.9578 7.25299 30.7823C7.42842 30.6069 7.54789 30.3834 7.59629 30.1401C7.6447 29.8967 7.61985 29.6445 7.52491 29.4153C7.42997 29.1861 7.26919 28.9902 7.0629 28.8523C6.85661 28.7145 6.61408 28.6409 6.36598 28.6409C6.03341 28.6413 5.71456 28.7736 5.47939 29.0087C5.24422 29.2439 5.11194 29.5628 5.11157 29.8953ZM6.36598 29.4378C6.45648 29.4378 6.54494 29.4646 6.62018 29.5149C6.69542 29.5652 6.75407 29.6366 6.7887 29.7202C6.82333 29.8039 6.83239 29.8958 6.81473 29.9846C6.79708 30.0734 6.7535 30.1549 6.68951 30.2189C6.62553 30.2829 6.544 30.3264 6.45525 30.3441C6.36649 30.3617 6.2745 30.3527 6.19089 30.3181C6.10729 30.2834 6.03583 30.2248 5.98556 30.1495C5.93528 30.0743 5.90845 29.9858 5.90845 29.8953C5.90866 29.7741 5.95693 29.6578 6.0427 29.5721C6.12846 29.4864 6.24471 29.4381 6.36598 29.4379V29.4378Z" fill="#6DA9DB"/>
<path d="M20.0297 5.9968V4.68382C20.026 3.88416 19.7057 3.11853 19.1389 2.55441C18.5721 1.99028 17.805 1.67358 17.0053 1.67358C16.2057 1.67358 15.4385 1.99028 14.8718 2.55441C14.305 3.11853 13.9847 3.88416 13.981 4.68382V5.9968C13.9847 6.79646 14.305 7.56209 14.8718 8.12621C15.4385 8.69034 16.2057 9.00704 17.0053 9.00704C17.805 9.00704 18.5721 8.69034 19.1389 8.12621C19.7057 7.56209 20.026 6.79646 20.0297 5.9968ZM14.7778 5.9968V4.68382C14.781 4.09516 15.0171 3.5317 15.4345 3.11658C15.8519 2.70147 16.4167 2.46845 17.0053 2.46845C17.594 2.46845 18.1587 2.70147 18.5761 3.11658C18.9935 3.5317 19.2296 4.09516 19.2328 4.68382V5.9968C19.2296 6.58547 18.9935 7.14892 18.5761 7.56404C18.1587 7.97915 17.594 8.21217 17.0053 8.21217C16.4167 8.21217 15.8519 7.97915 15.4345 7.56404C15.0171 7.14892 14.781 6.58547 14.7778 5.9968Z" fill="#6DA9DB"/>
<path d="M12.1303 17.2275H21.8802C21.9859 17.2275 22.0872 17.1855 22.1619 17.1108C22.2367 17.036 22.2786 16.9347 22.2786 16.829V15.9145H28.9531C29.0588 15.9145 29.1601 15.8725 29.2349 15.7978C29.3096 15.7231 29.3516 15.6217 29.3516 15.516V12.9299C29.3511 12.1711 29.0618 11.4409 28.5425 10.8876C28.0231 10.3344 27.3126 9.99955 26.5553 9.9512C26.3428 9.9356 26.2336 10.0701 26.145 10.1782C25.9687 10.3936 25.7456 10.5658 25.4927 10.6819C25.2397 10.798 24.9636 10.8548 24.6854 10.848C24.4071 10.8412 24.1341 10.771 23.8872 10.6427C23.6402 10.5144 23.4257 10.3314 23.2602 10.1077C23.2221 10.0562 23.1723 10.0147 23.1148 9.98654C23.0572 9.95842 22.9938 9.94457 22.9298 9.94616C22.4122 9.95778 21.9068 10.1052 21.4642 10.3737C21.1719 10.0339 20.8145 9.75622 20.413 9.55707C20.0114 9.35792 19.574 9.24138 19.1267 9.21436C18.9208 9.20599 18.8167 9.33097 18.7158 9.45342C18.509 9.70619 18.2472 9.9084 17.9503 10.0446C17.6535 10.1809 17.3295 10.2475 17.003 10.2396C16.6765 10.2316 16.3561 10.1492 16.0663 9.99862C15.7765 9.84805 15.5249 9.63331 15.3306 9.37075C15.2926 9.31919 15.2428 9.27759 15.1852 9.24947C15.1277 9.22135 15.0642 9.20755 15.0002 9.20925C14.1265 9.22946 13.2955 9.59192 12.6863 10.2186C12.636 10.2701 12.5882 10.3234 12.5417 10.3775C12.1303 10.1271 11.664 9.98067 11.1832 9.95107C10.9714 9.93547 10.8614 10.07 10.7729 10.178C10.5966 10.3934 10.3735 10.5657 10.1206 10.6818C9.86762 10.7979 9.59152 10.8547 9.31329 10.8479C9.03506 10.8411 8.76206 10.7709 8.51508 10.6426C8.26811 10.5143 8.05368 10.3313 7.88813 10.1076C7.85004 10.0562 7.80014 10.0146 7.74265 9.98652C7.68515 9.95841 7.62174 9.94452 7.55776 9.94602C6.77949 9.96584 6.03976 10.2889 5.49627 10.8463C4.95278 11.4037 4.64855 12.1514 4.64844 12.9299V15.516C4.64844 15.6217 4.69042 15.7231 4.76514 15.7978C4.83986 15.8725 4.9412 15.9145 5.04688 15.9145H11.7319V16.829C11.7319 16.9347 11.7738 17.036 11.8486 17.1108C11.9233 17.1855 12.0246 17.2275 12.1303 17.2275ZM22.7597 10.7556C23.0053 11.0345 23.3074 11.258 23.6458 11.4114C23.9842 11.5648 24.3514 11.6446 24.723 11.6456C25.0946 11.6466 25.4621 11.5687 25.8014 11.417C26.1406 11.2654 26.4438 11.0435 26.6909 10.7659C27.2091 10.8441 27.682 11.1054 28.0239 11.5024C28.3659 11.8995 28.5542 12.4059 28.5547 12.9299V15.1176H22.2786V12.5616C22.2791 12.031 22.1528 11.5079 21.9104 11.036C22.1708 10.8841 22.4601 10.7886 22.7597 10.7556ZM14.8285 10.0182C15.104 10.3371 15.4448 10.5932 15.8278 10.769C16.2108 10.9448 16.6271 11.0363 17.0485 11.0373C17.47 11.0383 17.8867 10.9488 18.2705 10.7748C18.6544 10.6008 18.9964 10.3464 19.2734 10.0288C19.8851 10.1134 20.4457 10.4164 20.8516 10.8819C21.2576 11.3474 21.4815 11.9439 21.482 12.5616V16.4306H12.5287V12.5616C12.5327 11.9291 12.7693 11.3203 13.1935 10.8512C13.6177 10.3821 14.1997 10.0856 14.8285 10.0182ZM5.44531 15.1176V12.9299C5.44868 12.3931 5.64793 11.876 6.00563 11.4757C6.36334 11.0753 6.85489 10.8194 7.38796 10.7559C7.63361 11.0346 7.93561 11.2581 8.27401 11.4114C8.61241 11.5648 8.97951 11.6445 9.35103 11.6455C9.72256 11.6464 10.0901 11.5685 10.4292 11.4169C10.7684 11.2653 11.0715 11.0434 11.3186 10.7659C11.593 10.807 11.8569 10.9001 12.0962 11.0403C11.856 11.5114 11.7311 12.0328 11.7319 12.5616V15.1176H5.44531Z" fill="#6DA9DB"/>
<path d="M27.3828 7.18377V6.03448C27.3828 5.31922 27.0987 4.63325 26.5929 4.12749C26.0871 3.62172 25.4012 3.33759 24.6859 3.33759C23.9706 3.33759 23.2847 3.62172 22.7789 4.12749C22.2732 4.63325 21.989 5.31922 21.989 6.03448V7.18377C21.989 7.89903 22.2732 8.58499 22.7789 9.09076C23.2847 9.59653 23.9706 9.88066 24.6859 9.88066C25.4012 9.88066 26.0871 9.59653 26.5929 9.09076C27.0987 8.58499 27.3828 7.89903 27.3828 7.18377ZM22.7859 7.18377V6.03448C22.7859 5.53056 22.9861 5.04728 23.3424 4.69096C23.6987 4.33464 24.182 4.13446 24.6859 4.13446C25.1898 4.13446 25.6731 4.33464 26.0294 4.69096C26.3857 5.04728 26.5859 5.53056 26.5859 6.03448V7.18377C26.5859 7.68769 26.3857 8.17096 26.0294 8.52728C25.6731 8.88361 25.1898 9.08379 24.6859 9.08379C24.182 9.08379 23.6987 8.88361 23.3424 8.52728C22.9861 8.17096 22.7859 7.68769 22.7859 7.18377Z" fill="#6DA9DB"/>
<path d="M12.011 7.18377V6.03448C12.011 5.68032 11.9412 5.32962 11.8057 5.00242C11.6701 4.67522 11.4715 4.37792 11.2211 4.12749C10.9706 3.87706 10.6733 3.67841 10.3461 3.54287C10.0189 3.40734 9.66823 3.33759 9.31407 3.33759C8.95991 3.33759 8.60922 3.40734 8.28202 3.54287C7.95482 3.67841 7.65752 3.87706 7.40709 4.12749C7.15666 4.37792 6.95801 4.67522 6.82248 5.00242C6.68694 5.32962 6.61719 5.68032 6.61719 6.03448V7.18377C6.61719 7.53793 6.68694 7.88862 6.82248 8.21583C6.95801 8.54303 7.15666 8.84033 7.40709 9.09076C7.65752 9.34119 7.95482 9.53984 8.28202 9.67537C8.60922 9.8109 8.95991 9.88066 9.31407 9.88066C9.66823 9.88066 10.0189 9.8109 10.3461 9.67537C10.6733 9.53984 10.9706 9.34119 11.2211 9.09076C11.4715 8.84033 11.6701 8.54303 11.8057 8.21583C11.9412 7.88862 12.011 7.53793 12.011 7.18377ZM7.41406 7.18377V6.03448C7.41406 5.53056 7.61424 5.04728 7.97056 4.69096C8.32688 4.33464 8.81016 4.13446 9.31407 4.13446C9.81799 4.13446 10.3013 4.33464 10.6576 4.69096C11.0139 5.04728 11.2141 5.53056 11.2141 6.03448V7.18377C11.2141 7.43328 11.1649 7.68035 11.0695 7.91087C10.974 8.1414 10.834 8.35085 10.6576 8.52728C10.4812 8.70372 10.2717 8.84367 10.0412 8.93916C9.81066 9.03464 9.56359 9.08379 9.31407 9.08379C9.06456 9.08379 8.81749 9.03464 8.58697 8.93916C8.35645 8.84367 8.14699 8.70372 7.97056 8.52728C7.79413 8.35085 7.65418 8.1414 7.55869 7.91087C7.46321 7.68035 7.41406 7.43328 7.41406 7.18377Z" fill="#6DA9DB"/>
</svg>
