<svg width="31" height="31" viewBox="0 0 31 31" fill="none" xmlns="http://www.w3.org/2000/svg">
<path d="M3.60767 3.61482V30.468C3.60767 30.7532 3.83888 30.9844 4.12413 30.9844H23.7476C24.0327 30.9844 24.2639 30.7532 24.2639 30.468V8.77904C24.2639 8.76755 24.2583 8.75777 24.2573 8.74649C24.2547 8.70119 24.2458 8.65652 24.2309 8.61376C24.2252 8.59717 24.2211 8.58122 24.2139 8.56505C24.1888 8.5089 24.1539 8.45763 24.1105 8.41381L18.9465 3.24981C18.9027 3.2062 18.8512 3.17132 18.7946 3.14643C18.7791 3.13984 18.7634 3.13431 18.7472 3.12941C18.704 3.11453 18.6591 3.10559 18.6134 3.10261C18.6047 3.1041 18.5945 3.09857 18.5836 3.09857H4.12413C3.83888 3.09857 3.60767 3.32958 3.60767 3.61482ZM22.5009 8.26258H19.0999V4.86153L22.5009 8.26258ZM4.64038 4.13129H18.0672V8.77904C18.0672 9.06407 18.2984 9.29529 18.5834 9.29529H23.2312V29.9517H4.64038V4.13129Z" fill="#6DA9DB"/>
<path d="M25.2968 26.8531V27.8859H26.846C27.1313 27.8859 27.3625 27.6549 27.3625 27.3696V0.516464C27.3625 0.231218 27.1313 0 26.846 0H7.22252C6.93727 0 6.70605 0.231218 6.70605 0.516464V2.06564H7.73898V1.03271H26.3296V26.8531H25.2968Z" fill="#6DA9DB"/>
<path d="M7.73901 10.3282H20.1327V11.3609H7.73901V10.3282Z" fill="#6DA9DB"/>
<path d="M7.73901 7.22968H11.8703V8.2626H7.73901V7.22968Z" fill="#6DA9DB"/>
<path d="M7.73901 13.4266H16.0016V14.4595H7.73901V13.4266Z" fill="#6DA9DB"/>
<path d="M17.0342 13.4266H20.1325V14.4595H17.0342V13.4266Z" fill="#6DA9DB"/>
<path d="M7.73901 16.5249H20.1327V17.5578H7.73901V16.5249Z" fill="#6DA9DB"/>
<path d="M7.73901 22.7219H20.1327V23.7548H7.73901V22.7219Z" fill="#6DA9DB"/>
<path d="M12.3865 19.6235H20.1326V20.6562H12.3865V19.6235Z" fill="#6DA9DB"/>
<path d="M7.73901 19.6235H11.3538V20.6562H7.73901V19.6235Z" fill="#6DA9DB"/>
<path d="M7.73901 25.8204H9.80466V26.8531H7.73901V25.8204Z" fill="#6DA9DB"/>
<path d="M10.8374 25.8204H20.1327V26.8531H10.8374V25.8204Z" fill="#6DA9DB"/>
</svg>
