<svg width="19" height="19" viewBox="0 0 19 19" fill="none" xmlns="http://www.w3.org/2000/svg">
<g clip-path="url(#clip0)">
<path d="M4.83306 5.13104L3.18697 5.25822C2.72894 5.29362 2.321 5.53367 2.06769 5.91682L0.169301 8.78802C-0.0228128 9.07858 -0.0533536 9.44222 0.0875496 9.76076C0.22849 10.0793 0.518126 10.3013 0.862313 10.3546L2.3695 10.588C2.72207 8.717 3.56608 6.85056 4.83306 5.13104Z" fill="#70ABDC"/>
<path d="M8.41113 16.6305L8.64459 18.1377C8.69791 18.4819 8.9199 18.7715 9.2384 18.9124C9.37092 18.971 9.51119 19 9.65076 19C9.8468 19 10.0415 18.9429 10.2112 18.8306L13.0824 16.9323C13.4656 16.6789 13.7057 16.271 13.741 15.813L13.8682 14.1669C12.1486 15.4339 10.2822 16.2779 8.41113 16.6305Z" fill="#70ABDC"/>
<path d="M7.845 15.5858C7.89732 15.5858 7.94994 15.5815 8.00245 15.5727C8.78635 15.4417 9.54189 15.2209 10.2626 14.9319L4.068 8.73724C3.77899 9.45794 3.5582 10.2135 3.42713 10.9974C3.37547 11.3064 3.47912 11.6212 3.70062 11.8428L7.15711 15.2992C7.34102 15.4831 7.58924 15.5858 7.845 15.5858Z" fill="#70ABDC"/>
<path d="M17.4853 8.42387C19.0012 5.49322 19.0573 2.39624 18.9781 0.943795C18.951 0.446125 18.5542 0.0493551 18.0565 0.0222283C17.82 0.00931438 17.5397 0 17.2238 0C15.5997 0 13.0299 0.245996 10.5764 1.51502C8.62664 2.52353 6.06993 4.74417 4.56152 7.66251C4.57934 7.67642 4.59674 7.69119 4.61314 7.70759L11.2928 14.3872C11.3092 14.4036 11.3239 14.421 11.3378 14.4388C14.2562 12.9304 16.4768 10.3737 17.4853 8.42387ZM11.0476 4.01669C12.1327 2.93158 13.8984 2.93147 14.9836 4.01669C15.5093 4.54234 15.7988 5.24129 15.7988 5.98469C15.7988 6.7281 15.5093 7.42705 14.9836 7.9527C14.4411 8.4952 13.7282 8.7665 13.0156 8.76657C12.3028 8.76661 11.5903 8.49535 11.0476 7.9527C10.5219 7.42705 10.2324 6.7281 10.2324 5.98469C10.2324 5.24129 10.5219 4.54234 11.0476 4.01669Z" fill="#70ABDC"/>
<path d="M11.8348 7.16548C12.4859 7.81656 13.5454 7.8166 14.1964 7.16548C14.5118 6.85005 14.6855 6.43071 14.6855 5.98466C14.6855 5.5386 14.5118 5.11927 14.1964 4.80387C13.8709 4.47831 13.4433 4.31555 13.0156 4.31555C12.588 4.31555 12.1604 4.47831 11.8348 4.80387C11.5194 5.11927 11.3457 5.5386 11.3457 5.98466C11.3457 6.43071 11.5194 6.85008 11.8348 7.16548Z" fill="#70ABDC"/>
<path d="M0.567401 15.6578C0.709864 15.6578 0.852327 15.6035 0.960983 15.4947L2.77834 13.6774C2.99573 13.46 2.99573 13.1075 2.77834 12.8902C2.56099 12.6728 2.20853 12.6728 1.99114 12.8902L0.173782 14.7075C-0.0436045 14.9249 -0.0436045 15.2773 0.173782 15.4947C0.282476 15.6034 0.424938 15.6578 0.567401 15.6578Z" fill="#70ABDC"/>
<path d="M4.44427 14.5556C4.22692 14.3382 3.87446 14.3382 3.65707 14.5556L0.16304 18.0497C-0.0543467 18.267 -0.0543467 18.6195 0.16304 18.8369C0.271733 18.9456 0.414196 18.9999 0.556659 18.9999C0.699122 18.9999 0.841585 18.9456 0.950241 18.8368L4.44424 15.3428C4.66166 15.1254 4.66166 14.773 4.44427 14.5556Z" fill="#70ABDC"/>
<path d="M5.32313 16.2211L3.50581 18.0384C3.28843 18.2558 3.28843 18.6083 3.50581 18.8257C3.61451 18.9343 3.75697 18.9887 3.89939 18.9887C4.04182 18.9887 4.18432 18.9344 4.29297 18.8257L6.11033 17.0083C6.32771 16.7909 6.32771 16.4385 6.11033 16.2211C5.89298 16.0037 5.54051 16.0037 5.32313 16.2211Z" fill="#70ABDC"/>
</g>
<defs>
<clipPath id="clip0">
<rect width="19" height="19" fill="white"/>
</clipPath>
</defs>
</svg>
