<svg width="21" height="21" viewBox="0 0 21 21" fill="none" xmlns="http://www.w3.org/2000/svg">
<g clip-path="url(#clip0)">
<path d="M18.9053 4.76488H14.3825V2.9424C14.3825 2.07462 13.6765 1.36868 12.8087 1.36868H8.19098C7.3232 1.36868 6.61722 2.07462 6.61722 2.9424V4.76488H2.09439C0.942234 4.76488 0.00485247 5.70227 0.00485247 6.85442C0.00485247 7.90099 -0.102328 8.84087 0.690758 9.89784C1.13947 10.4959 1.75611 10.9225 2.47396 11.1314L9.44482 13.161C10.1349 13.3619 10.8645 13.362 11.5548 13.161L18.5256 11.1314C19.2435 10.9224 19.8601 10.4959 20.3088 9.89784C21.1055 8.83612 20.9947 7.88657 20.9947 6.85442C20.9948 5.70227 20.0574 4.76488 18.9053 4.76488ZM7.95021 2.9424C7.95021 2.80964 8.05822 2.70167 8.19098 2.70167H12.8087C12.9415 2.70167 13.0495 2.80968 13.0495 2.9424V4.76488H7.95021V2.9424Z" fill="#70ABDC"/>
<path d="M18.8983 12.4113C11.3794 14.6005 11.4767 14.6448 10.4998 14.6448C9.52991 14.6448 9.76001 14.6412 2.10138 12.4113C1.29388 12.1762 0.578734 11.7428 0.00488281 11.1453V17.5418C0.00488281 18.694 0.942222 19.6313 2.09442 19.6313H18.9053C20.0574 19.6313 20.9948 18.694 20.9948 17.5418V11.1453C20.4209 11.7428 19.7058 12.1762 18.8983 12.4113Z" fill="#70ABDC"/>
</g>
<defs>
<clipPath id="clip0">
<rect width="21" height="21" fill="white"/>
</clipPath>
</defs>
</svg>
