<svg width="16" height="16" viewBox="0 0 16 16" fill="none" xmlns="http://www.w3.org/2000/svg">
<g clip-path="url(#clip0)">
<path d="M15.5414 12.5514C16.1506 13.1606 16.1506 14.1518 15.5414 14.7611C15.5405 14.7621 15.5395 14.7629 15.5386 14.7639L14.4695 15.8197C14.3477 15.9399 14.189 16 14.0304 16C13.869 16 13.7079 15.938 13.5856 15.8142C13.3431 15.5686 13.3456 15.1728 13.5912 14.9303L14.2167 14.3125H4.18654C2.80801 14.3125 1.68655 13.191 1.68655 11.8125V1.76721L1.06302 2.38244C0.817289 2.62487 0.421538 2.62219 0.179106 2.37646C-0.0633247 2.13073 -0.0606391 1.73498 0.185088 1.49255L1.24099 0.450927C1.84854 -0.148437 2.83706 -0.148437 3.4446 0.450927L4.50051 1.49255C4.74624 1.73498 4.74892 2.13073 4.50649 2.37646C4.38418 2.50036 4.22292 2.56249 4.06154 2.56249C3.90298 2.56249 3.74441 2.50256 3.62258 2.38244L2.93655 1.70556V11.8125C2.93655 12.5017 3.49734 13.0625 4.18654 13.0625H14.28L13.5912 12.3822C13.3456 12.1396 13.343 11.7439 13.5856 11.4983C13.8281 11.2528 14.2239 11.2502 14.4695 11.4928L15.5386 12.5486C15.5395 12.5495 15.5405 12.5504 15.5414 12.5514ZM14.124 0H6.03029C5.68422 0 5.40407 0.281249 5.40529 0.627318C5.40663 0.971556 5.68605 1.25 6.03029 1.25H14.124C14.4692 1.25 14.749 1.52978 14.749 1.875V9.99998C14.749 10.3442 15.0275 10.6238 15.3717 10.625C15.7178 10.6262 15.999 10.346 15.999 9.99998V1.875C15.999 0.839476 15.1595 0 14.124 0ZM9.18653 10.7153C9.53175 10.7153 9.81153 10.4355 9.81153 10.0903V7.30858C9.81153 6.36083 9.04054 5.58983 8.09279 5.58983C7.67763 5.58983 7.2964 5.73778 6.99904 5.98375C6.70168 5.73778 6.32045 5.58983 5.90529 5.58983C5.66689 5.58983 5.43959 5.63878 5.23305 5.72692C5.12185 5.62511 4.97414 5.56249 4.81154 5.56249C4.46633 5.56249 4.18654 5.84227 4.18654 6.18749V10.0937C4.18654 10.4389 4.46633 10.7187 4.81154 10.7187C5.15676 10.7187 5.43654 10.4389 5.43654 10.0937V7.30858C5.43654 7.05016 5.64687 6.83983 5.90529 6.83983C6.16371 6.83983 6.37404 7.05016 6.37404 7.30858V10.0937C6.37404 10.4389 6.65382 10.7187 6.99904 10.7187C7.34425 10.7187 7.62404 10.4389 7.62404 10.0937V7.30858C7.62404 7.05016 7.83436 6.83983 8.09279 6.83983C8.35121 6.83983 8.56154 7.05016 8.56154 7.30858V10.0903C8.56154 10.4355 8.84132 10.7153 9.18653 10.7153ZM12.0225 3.37499C12.0192 3.37499 12.016 3.37548 12.0127 3.37548C12.0095 3.37548 12.0064 3.37499 12.0031 3.37499C11.2083 3.37499 10.5615 4.02245 10.5615 4.81823C10.5615 5.16332 10.8413 5.44323 11.1865 5.44323C11.5317 5.44323 11.8115 5.16332 11.8115 4.81823C11.8115 4.71349 11.8993 4.62499 12.0031 4.62499C12.0064 4.62499 12.0095 4.6245 12.0128 4.6245C12.016 4.6245 12.0192 4.62499 12.0225 4.62499C12.122 4.62499 12.2067 4.70629 12.2135 4.80529C12.2012 4.85106 12.1054 5.13414 11.5065 5.79296C11.135 6.2014 10.77 6.53404 10.7665 6.53722C10.5752 6.7108 10.5105 6.98424 10.6035 7.22508C10.6965 7.46605 10.9282 7.62498 11.1865 7.62498H12.874C13.2192 7.62498 13.499 7.3452 13.499 6.99999C13.499 6.65477 13.2192 6.37499 12.874 6.37499H12.6591C13.214 5.72167 13.464 5.23546 13.464 4.81823C13.464 4.02245 12.8173 3.37499 12.0225 3.37499Z" fill="#70ABDC"/>
</g>
<defs>
<clipPath id="clip0">
<rect width="16" height="16" fill="white"/>
</clipPath>
</defs>
</svg>
