<svg width="19" height="15" viewBox="0 0 19 15" fill="none" xmlns="http://www.w3.org/2000/svg">
<path d="M0.395922 1.53118C3.0036 3.7396 7.57926 7.62487 8.9241 8.83631C9.10464 8.99981 9.29828 9.08294 9.4993 9.08294C9.69991 9.08294 9.89321 9.00059 10.0733 8.83787C11.4193 7.62524 15.995 3.7396 18.6027 1.53118C18.7651 1.39395 18.7898 1.15274 18.6584 0.984967C18.3545 0.597285 17.9015 0.375 17.416 0.375H1.58264C1.09714 0.375 0.644073 0.597285 0.340258 0.985004C0.208817 1.15274 0.233569 1.39395 0.395922 1.53118Z" fill="#70ABDC"/>
<path d="M18.7704 2.72794C18.6301 2.66263 18.465 2.68542 18.3483 2.78517C15.4564 5.23669 11.7656 8.37903 10.6044 9.42541C9.95262 10.0137 9.04808 10.0137 8.39481 9.42463C7.15706 8.30942 3.01239 4.78596 0.651715 2.78513C0.534189 2.68538 0.368756 2.66337 0.229596 2.72791C0.0896934 2.79288 0 2.93282 0 3.08705V13.0416C0 13.9149 0.710088 14.625 1.58335 14.625H17.4167C18.2899 14.625 19 13.9149 19 13.0416V3.08705C19 2.93282 18.9103 2.79251 18.7704 2.72794Z" fill="#70ABDC"/>
</svg>
