<svg width="27" height="26" viewBox="0 0 27 26" fill="none" xmlns="http://www.w3.org/2000/svg">
<g opacity="0.4">
<path d="M25.6215 6.90778C25.3298 5.86354 24.4748 5.04038 23.3906 4.7592C21.4098 4.2373 13.4865 4.2373 13.4865 4.2373C13.4865 4.2373 5.56353 4.2373 3.58274 4.73941C2.51935 5.0203 1.64352 5.86369 1.35183 6.90778C0.830566 8.81505 0.830566 12.7705 0.830566 12.7705C0.830566 12.7705 0.830566 16.7459 1.35183 18.6332C1.64383 19.6773 2.4985 20.5004 3.5829 20.7816C5.58438 21.3037 13.4868 21.3037 13.4868 21.3037C13.4868 21.3037 21.4098 21.3037 23.3906 20.8016C24.475 20.5205 25.3298 19.6974 25.6218 18.6533C26.1429 16.7459 26.1429 12.7906 26.1429 12.7906C26.1429 12.7906 26.1638 8.81505 25.6215 6.90778ZM10.9639 16.4247V9.11632L17.5525 12.7705L10.9639 16.4247Z" fill="white"/>
</g>
</svg>
