<svg width="10" height="10" viewBox="0 0 10 10" fill="none" xmlns="http://www.w3.org/2000/svg">
<g clip-path="url(#clip0)">
<path d="M5.82835 7.18635L9.8853 3.13783C10.038 2.98541 10.0383 2.73808 9.88587 2.58541C9.73349 2.43269 9.48616 2.43244 9.33345 2.58482L5.2762 6.63363C5.1239 6.78593 4.87609 6.78594 4.72349 6.63334L0.666537 2.58482C0.513823 2.43244 0.266498 2.43269 0.114115 2.58541C0.0380211 2.66164 -4.78108e-06 2.7615 -4.78545e-06 2.86133C-4.78982e-06 2.96142 0.0382356 3.06152 0.114701 3.13783L4.17136 7.18605C4.62827 7.64297 5.37173 7.64297 5.82835 7.18635Z" fill="black"/>
</g>
<defs>
<clipPath id="clip0">
<rect width="10" height="10" fill="white" transform="translate(10) rotate(90)"/>
</clipPath>
</defs>
</svg>
