<svg width="10" height="10" viewBox="0 0 10 10" fill="none" xmlns="http://www.w3.org/2000/svg">
<g clip-path="url(#clip0)">
<path d="M5.82835 7.18677L9.8853 3.13826C10.038 2.98584 10.0383 2.73851 9.88587 2.58584C9.73349 2.43312 9.48616 2.43287 9.33345 2.58525L5.2762 6.63406C5.1239 6.78636 4.87609 6.78636 4.72349 6.63376L0.666537 2.58525C0.513823 2.43287 0.266498 2.43312 0.114115 2.58583C0.0380211 2.66207 -4.78108e-06 2.76193 -4.78545e-06 2.86175C-4.78982e-06 2.96185 0.0382356 3.06195 0.114701 3.13826L4.17136 7.18648C4.62827 7.64339 5.37173 7.64339 5.82835 7.18677Z" fill="#70ABDC"/>
</g>
<defs>
<clipPath id="clip0">
<rect width="10" height="10" fill="white" transform="translate(10) rotate(90)"/>
</clipPath>
</defs>
</svg>
