<svg width="19" height="19" viewBox="0 0 19 19" fill="none" xmlns="http://www.w3.org/2000/svg">
<g clip-path="url(#clip0)">
<path d="M17.2728 0H1.72729C0.775087 0 0 0.774642 0 1.72729V17.2728C0 18.2254 0.775087 19 1.72729 19H17.2728C18.225 19 19 18.2254 19 17.2728V1.72729C19 0.774642 18.225 0 17.2728 0ZM15.5455 15.9773C15.5455 16.216 15.3523 16.4091 15.1136 16.4091H12.5227C12.284 16.4091 12.0909 16.216 12.0909 15.9773V9.04374L9.7513 10.7149C9.60119 10.822 9.39877 10.822 9.24862 10.7149L6.90903 9.04374V15.9773C6.90903 16.216 6.71588 16.4091 6.4772 16.4091H3.88637C3.64768 16.4091 3.45453 16.216 3.45453 15.9773V3.02274C3.45453 2.85826 3.54817 2.70815 3.69573 2.6352C3.84418 2.5635 4.0196 2.58038 4.14947 2.68034L9.49998 6.79612L14.8505 2.6803C14.9804 2.58034 15.1567 2.56391 15.3042 2.63516C15.4518 2.70811 15.5454 2.85822 15.5454 3.0227V15.9773H15.5455Z" fill="#70ABDC"/>
</g>
<defs>
<clipPath id="clip0">
<rect width="19" height="19" fill="white"/>
</clipPath>
</defs>
</svg>
