<svg width="25" height="25" viewBox="0 0 25 25" fill="none" xmlns="http://www.w3.org/2000/svg">
<path d="M12.5 25C19.4036 25 25 19.4036 25 12.5C25 5.59644 19.4036 0 12.5 0C5.59644 0 0 5.59644 0 12.5C0 19.4036 5.59644 25 12.5 25Z" fill="#039BE5"/>
<path d="M5.71872 12.2291L17.7708 7.5822C18.3302 7.38012 18.8187 7.71866 18.6375 8.56449L18.6385 8.56345L16.5864 18.2312C16.4343 18.9166 16.0271 19.0832 15.4573 18.7603L12.3323 16.4572L10.825 17.9093C10.6583 18.076 10.5177 18.2166 10.1948 18.2166L10.4166 15.0364L16.2083 9.80408C16.4604 9.5822 16.1521 9.4572 15.8198 9.67804L8.66247 14.1843L5.57706 13.2218C4.90726 13.0093 4.89268 12.552 5.71872 12.2291Z" fill="white"/>
</svg>
