<svg width="25" height="25" viewBox="0 0 25 25" fill="none" xmlns="http://www.w3.org/2000/svg">
<path d="M12.5 25C19.4036 25 25 19.4036 25 12.5C25 5.59644 19.4036 0 12.5 0C5.59644 0 0 5.59644 0 12.5C0 19.4036 5.59644 25 12.5 25Z" fill="#4D76A1"/>
<path fill-rule="evenodd" clip-rule="evenodd" d="M12.0285 17.9823H13.0096C13.0096 17.9823 13.306 17.9498 13.4573 17.7867C13.5965 17.6369 13.5921 17.3557 13.5921 17.3557C13.5921 17.3557 13.5729 16.0393 14.1839 15.8454C14.7862 15.6545 15.5596 17.1178 16.3794 17.6804C16.9993 18.1062 17.4703 18.0129 17.4703 18.0129L19.6623 17.9823C19.6623 17.9823 20.8089 17.9117 20.2652 17.0101C20.2207 16.9364 19.9486 16.3432 18.6355 15.1244C17.2611 13.8487 17.4452 14.055 19.1007 11.8484C20.109 10.5046 20.5121 9.68413 20.3862 9.33273C20.2661 8.99805 19.5246 9.08651 19.5246 9.08651L17.0566 9.10189C17.0566 9.10189 16.8736 9.07693 16.7379 9.15804C16.6053 9.23759 16.52 9.42298 16.52 9.42298C16.52 9.42298 16.1294 10.4629 15.6084 11.3473C14.5094 13.2134 14.07 13.3119 13.8904 13.1961C13.4726 12.926 13.5769 12.1111 13.5769 11.5322C13.5769 9.72379 13.8512 8.96975 13.0428 8.77456C12.7745 8.70972 12.5771 8.66693 11.891 8.66003C11.0104 8.65089 10.2651 8.6627 9.84306 8.86948C9.5623 9.00696 9.34571 9.31335 9.47762 9.33095C9.64073 9.35279 10.0102 9.43055 10.206 9.69727C10.4589 10.0413 10.45 10.8141 10.45 10.8141C10.45 10.8141 10.5953 12.9429 10.1107 13.2074C9.77799 13.3888 9.32165 13.0185 8.34189 11.3255C7.83987 10.4582 7.46084 9.49963 7.46084 9.49963C7.46084 9.49963 7.38776 9.32048 7.2574 9.22466C7.0992 9.10857 6.87816 9.07158 6.87816 9.07158L4.53293 9.08696C4.53293 9.08696 4.18087 9.09676 4.05163 9.24984C3.93665 9.38599 4.04249 9.66764 4.04249 9.66764C4.04249 9.66764 5.87857 13.9632 7.95752 16.128C9.86378 18.1127 12.0285 17.9823 12.0285 17.9823Z" fill="white"/>
</svg>
