<svg width="25" height="25" viewBox="0 0 25 25" fill="none" xmlns="http://www.w3.org/2000/svg">
<g clip-path="url(#clip0)">
<path d="M12.5018 24.9998C19.4053 24.9998 25.0017 19.4034 25.0017 12.4999C25.0017 5.59639 19.4053 0 12.5018 0C5.59834 0 0.00195312 5.59639 0.00195312 12.4999C0.00195312 19.4034 5.59834 24.9998 12.5018 24.9998Z" fill="#55ACEE"/>
<path d="M20.157 8.98326C19.6213 9.22079 19.0451 9.38144 18.4408 9.45319C19.0578 9.08353 19.5313 8.49862 19.7548 7.80052C19.1774 8.143 18.5377 8.39144 17.8574 8.52536C17.3124 7.94491 16.5359 7.58215 15.676 7.58215C14.0262 7.58215 12.6882 8.9202 12.6882 10.57C12.6882 10.8042 12.7147 11.0321 12.766 11.2509C10.2828 11.1264 8.08112 9.93694 6.60737 8.12874C6.35023 8.56992 6.20272 9.08353 6.20272 9.631C6.20272 10.6674 6.73059 11.5823 7.53186 12.1179C7.04232 12.1026 6.5813 11.9682 6.17866 11.7438C6.17844 11.7565 6.17844 11.7692 6.17844 11.7817C6.17844 13.2294 7.20877 14.4368 8.57534 14.7111C8.32488 14.7798 8.06039 14.8161 7.78833 14.8161C7.59536 14.8161 7.40842 14.7976 7.22615 14.7628C7.60628 15.9496 8.70948 16.8135 10.0172 16.8377C8.99446 17.6392 7.70633 18.1167 6.30611 18.1167C6.06546 18.1167 5.82704 18.1027 5.59375 18.0749C6.91531 18.9229 8.48621 19.4174 10.1734 19.4174C15.6691 19.4174 18.6745 14.8647 18.6745 10.916C18.6745 10.7866 18.6716 10.6575 18.6658 10.5296C19.2501 10.1085 19.7566 9.58243 20.157 8.98326Z" fill="#F1F2F2"/>
</g>
<defs>
<clipPath id="clip0">
<rect width="25" height="25" fill="white"/>
</clipPath>
</defs>
</svg>
