<svg width="20" height="20" viewBox="0 0 20 20" fill="none" xmlns="http://www.w3.org/2000/svg">
<path d="M19.4279 15.6892C20.1895 16.4508 20.1895 17.6898 19.4279 18.4513C19.4269 18.4526 19.4257 18.4536 19.4244 18.4549L18.0881 19.7746C17.9358 19.9249 17.7374 20 17.5392 20C17.3375 20 17.1361 19.9224 16.9832 19.7677C16.6801 19.4607 16.6832 18.966 16.9902 18.6628L17.7721 17.8906H5.2344C3.51123 17.8906 2.10941 16.4888 2.10941 14.7656V2.20901L1.32999 2.97805C1.02283 3.28109 0.528143 3.27773 0.225104 2.97058C-0.0779352 2.66342 -0.0745782 2.16873 0.232581 1.86569L1.55246 0.563659C2.31189 -0.185546 3.54755 -0.185546 4.30697 0.563659L5.62686 1.86569C5.93402 2.16873 5.93737 2.66342 5.63433 2.97058C5.48144 3.12545 5.27987 3.20312 5.07815 3.20312C4.87994 3.20312 4.68173 3.1282 4.52945 2.97805L3.6719 2.13195V14.7656C3.6719 15.6271 4.37289 16.3281 5.2344 16.3281H17.8513L16.9902 15.4777C16.6832 15.1745 16.68 14.6798 16.9832 14.3728C17.2864 14.066 17.7811 14.0628 18.0881 14.366L19.4244 15.6857C19.4257 15.6869 19.4269 15.688 19.4279 15.6892ZM17.6563 0H7.53908C7.1065 0 6.75631 0.351562 6.75784 0.784148C6.75951 1.21444 7.10879 1.5625 7.53908 1.5625H17.6563C18.0878 1.5625 18.4375 1.91223 18.4375 2.34375V12.5C18.4375 12.9303 18.7856 13.2797 19.2158 13.2812C19.6484 13.2827 20 12.9326 20 12.5V2.34375C20 1.04934 18.9507 0 17.6563 0ZM11.4844 13.3941C11.9159 13.3941 12.2656 13.0444 12.2656 12.6129V9.13572C12.2656 7.95103 11.3019 6.98729 10.1172 6.98729C9.59825 6.98729 9.12172 7.17223 8.75002 7.47969C8.37832 7.17223 7.90178 6.98729 7.38283 6.98729C7.08483 6.98729 6.80071 7.04848 6.54253 7.15865C6.40353 7.03139 6.2189 6.95311 6.01565 6.95311C5.58413 6.95311 5.2344 7.30284 5.2344 7.73436V12.6172C5.2344 13.0487 5.58413 13.3984 6.01565 13.3984C6.44717 13.3984 6.7969 13.0487 6.7969 12.6172V9.13572C6.7969 8.8127 7.05981 8.54979 7.38283 8.54979C7.70586 8.54979 7.96877 8.8127 7.96877 9.13572V12.6172C7.96877 13.0487 8.3185 13.3984 8.75002 13.3984C9.18154 13.3984 9.53127 13.0487 9.53127 12.6172V9.13572C9.53127 8.8127 9.79418 8.54979 10.1172 8.54979C10.4402 8.54979 10.7031 8.8127 10.7031 9.13572V12.6129C10.7031 13.0444 11.0529 13.3941 11.4844 13.3941ZM15.0293 4.21874C15.0252 4.21874 15.0212 4.21935 15.0171 4.21935C15.0131 4.21935 15.0092 4.21874 15.005 4.21874C14.0115 4.21874 13.2031 5.02807 13.2031 6.02278C13.2031 6.45415 13.5529 6.80403 13.9844 6.80403C14.4159 6.80403 14.7656 6.45415 14.7656 6.02278C14.7656 5.89186 14.8753 5.78124 15.005 5.78124C15.0092 5.78124 15.0131 5.78063 15.0172 5.78063C15.0212 5.78063 15.0252 5.78124 15.0293 5.78124C15.1537 5.78124 15.2596 5.88286 15.2681 6.00661C15.2527 6.06383 15.1329 6.41768 14.3843 7.2412C13.92 7.75175 13.4638 8.16756 13.4593 8.17152C13.2202 8.3885 13.1394 8.7303 13.2556 9.03135C13.3719 9.33256 13.6615 9.53123 13.9844 9.53123H16.0938C16.5253 9.53123 16.875 9.1815 16.875 8.74998C16.875 8.31847 16.5253 7.96873 16.0938 7.96873H15.825C16.5187 7.15209 16.8312 6.54433 16.8312 6.02278C16.8312 5.02807 16.0228 4.21874 15.0293 4.21874Z" fill="#70ABDC"/>
</svg>
